<?xml version="1.0" encoding="utf-8"?>
<!-- Generator: Adobe Illustrator 24.1.1, SVG Export Plug-In . SVG Version: 6.00 Build 0)  -->
<svg version="1.1" id="Layer_1" xmlns="http://www.w3.org/2000/svg" xmlns:xlink="http://www.w3.org/1999/xlink" x="0px" y="0px"
	 viewBox="0 0 612 792" style="enable-background:new 0 0 612 792;" xml:space="preserve">
<style type="text/css">
	.st0{fill:#FDFDFE;}
	.st1{fill:#672F91;}
	.st2{fill:#3A4650;}
</style>
<g>
	<path class="st0" d="M305.72,504.7c-71.87,0-143.74,0-215.62,0.02c-0.9,0-1.11-0.2-1.11-1.11c0.02-71.5,0.02-143.01,0-214.51
		c0-0.9,0.2-1.11,1.11-1.11c143.74,0.02,287.49,0.02,431.23,0c0.9,0,1.11,0.2,1.11,1.11c-0.02,71.5-0.02,143.01,0,214.51
		c0,0.9-0.2,1.11-1.11,1.11C449.47,504.7,377.59,504.7,305.72,504.7z M289.75,433.25c0.25,0.13,0.42,0.22,0.58,0.31
		c2.15,1.14,3.07,2.99,2.8,5.62c-0.2,1.88-1.77,3.56-3.87,4.14c-0.66,0.18-1.33,0.27-2.02,0.26c-2.81-0.01-5.62-0.05-8.42,0.02
		c-0.95,0.02-1.11-0.31-1.11-1.17c0.04-5.7,0.01-11.39,0.03-17.09c0-0.82-0.07-1.22-1.1-1.35c-3.53-0.44-6.56-2.03-8.98-4.65
		c-0.47-0.51-0.93-0.64-1.56-0.64c-49.49,0.01-98.97,0.01-148.46-0.01c-0.97,0-1.19,0.28-1.18,1.21c0.03,9.15,0.02,18.29,0.02,27.44
		c0,1.8-0.3,1.64,1.68,1.64c77.16,0,154.31,0,231.47,0c47.92,0,95.84,0,143.77,0c1.54,0,1.54,0,1.54-1.55
		c0-9.15-0.02-18.3,0.03-27.44c0.01-1.09-0.31-1.31-1.34-1.3c-9.5,0.04-19.01,0.02-28.51,0.02c-56.7,0-113.41,0-170.11-0.02
		c-0.97,0-1.77,0.23-2.58,0.75c-2.22,1.44-4.58,2.63-7.08,3.53c-0.16,0.06-0.52-0.04-0.45,0.45c2.87-0.19,5.77-0.29,7.03,3.09
		C292.99,429.27,292.14,431.51,289.75,433.25z M179.85,362.81c0.54-0.29,0.95-0.53,1.36-0.75c3.16-1.69,5.91-3.88,7.89-6.88
		c5.52-8.39,6.28-17.33,2.2-26.42c-4.08-9.09-11.05-14.1-21.38-14.04c-17.4,0.1-34.8,0.04-52.2,0.01c-0.99,0-1.25,0.23-1.25,1.24
		c0.03,32.01,0.03,64.02-0.01,96.03c0,1.16,0.37,1.36,1.41,1.36c15.72-0.03,31.43,0,47.15-0.03c5.97-0.01,11.8-0.95,17.36-3.25
		c6.22-2.57,11.17-6.55,13.88-12.9c1.71-4.01,1.87-8.25,1.51-12.52c-0.62-7.33-3.67-13.36-9.65-17.78
		C185.66,365.04,182.9,363.79,179.85,362.81z M353.12,314.75c4.62,5.61,6.87,11.87,7.29,18.82c0.05,0.9,0.59,0.67,1.05,0.67
		c4.77,0.01,9.55,0.01,14.32,0c2.41,0,4.48,0.84,6.13,2.59c2.71,2.86,2.93,6.37,2.42,10.01c-0.51,3.67-2.68,5.96-6.09,7.2
		c-1.23,0.44-2.5,0.55-3.78,0.55c-5.7,0-11.39,0.03-17.08-0.02c-0.96-0.01-1.43,0.3-1.8,1.16c-0.48,1.14-1.1,2.22-1.71,3.3
		c-3.34,5.94-7.59,11.21-12.07,16.3c-3.66,4.15-7.05,8.54-11,12.42c-0.6,0.59-0.86,1.13-0.86,1.96c0.03,7.42,0.04,14.85-0.01,22.27
		c-0.01,1.15,0.34,1.37,1.41,1.37c15.68-0.03,31.36-0.01,47.04-0.03c5.04-0.01,9.99-0.7,14.78-2.27c5.19-1.71,9.82-4.29,13.35-8.59
		c4-4.87,5.15-10.53,4.79-16.66c-0.47-8.08-3.64-14.69-10.39-19.38c-2.31-1.6-4.86-2.71-7.66-3.63c0.48-0.25,0.83-0.44,1.18-0.62
		c2.8-1.46,5.28-3.35,7.25-5.84c7.27-9.2,7.41-22.92,0.27-32.48c-4.48-5.99-10.4-9.2-18.02-9.12c-7.26,0.08-14.52,0.02-21.78,0.02
		C359.22,314.75,356.3,314.75,353.12,314.75z M258.3,374.45c-3.23-5.68-6.16-11.24-7.64-17.41c-0.22-0.9-0.58-1.11-1.44-1.1
		c-7.34,0.03-14.68,0.01-22.01,0.04c-0.83,0-1.08-0.19-1.07-1.05c0.04-6.34,0.05-12.68-0.01-19.01c-0.01-1,0.33-1.16,1.23-1.16
		c7.9,0.03,15.8,0,23.7,0.04c0.87,0,1.3-0.22,1.7-1.06c3.04-6.34,7.71-10.94,14.39-13.39c1-0.37,2.46-0.23,2.91-1.09
		c0.46-0.89,0.08-2.2,0.16-3.31c0.07-0.91-0.16-1.21-1.16-1.21c-21.53,0.03-43.06,0.03-64.6,0.01c-0.85,0-1.15,0.13-1.15,1.08
		c0.03,32.13,0.03,64.26,0.01,96.4c0,0.87,0.18,1.15,1.11,1.14c6.82-0.04,13.63-0.05,20.45,0c1.09,0.01,1.31-0.32,1.31-1.35
		c-0.04-12.11-0.01-24.23-0.05-36.34c0-1.01,0.26-1.24,1.25-1.23c9.82,0.04,19.65,0.02,29.47,0.02
		C257.27,374.45,257.7,374.45,258.3,374.45z M453.61,314.75c-13.39,0-26.79,0.02-40.18-0.03c-1.09,0-1.3,0.3-1.29,1.32
		c0.05,5.86,0.05,11.71,0,17.57c-0.01,0.96,0.26,1.18,1.19,1.18c9.14-0.04,18.29,0,27.43-0.05c1.19-0.01,1.52,0.25,1.52,1.49
		c-0.04,25.23-0.02,50.47-0.06,75.7c0,1.19,0.33,1.43,1.46,1.42c6.62-0.06,13.23-0.06,19.85,0c1.19,0.01,1.53-0.25,1.53-1.5
		c-0.04-25.15-0.03-50.31-0.03-75.46c0-1.92-0.16-1.62,1.57-1.62c9.1-0.01,18.21-0.02,27.31,0.02c0.91,0,1.12-0.24,1.11-1.13
		c-0.04-5.9-0.05-11.79,0-17.69c0.01-0.98-0.2-1.26-1.22-1.25C480.4,314.76,467,314.75,453.61,314.75z M307.1,316.56
		c0.5-0.25,0.92-0.47,1.36-0.67c2.69-1.24,5.49-1.76,8.42-1.12c3.1,0.68,4.64,2.76,4.4,5.9c-0.15,2-0.87,3.82-1.83,5.54
		c-2.61,4.68-6.63,7.98-10.96,10.94c-4.9,3.36-10.22,5.98-15.5,8.66c-0.48,0.25-0.84,0.52-1.05,1.06c-1.93,5.09-3.8,10.2-5.34,15.42
		c-0.08,0.27-0.43,0.64-0.06,0.86c0.38,0.22,0.68-0.13,0.88-0.43c1.88-2.81,4.69-4.35,7.75-5.39c8.36-2.86,15.96-1.07,22.56,4.5
		c7.33,6.2,10.27,14.11,8.05,23.66c-0.25,1.08-0.64,2.12-1.04,3.45c1.67-1.01,2.94-2.09,4.09-3.29c4.88-5.05,9.31-10.49,13.86-15.83
		c4.7-5.51,8.87-11.38,11.59-18.15c2.89-7.21,4.2-14.66,2.68-22.36c-3.71-18.82-22.43-25.14-35.96-22.06
		c-5.2,1.18-9.28,4.4-13.3,7.67C307.28,315.29,306.94,315.76,307.1,316.56z M262.46,374.42c0.62-7.67,3.88-13.82,9.82-18.52
		c4.12-3.26,8.77-5.58,13.52-7.72c1.32-0.59,2.3-1.2,2.33-2.86c0.02-0.89,0.46-1.77,0.76-2.64c0.71-2.08,1.62-4.1,2.15-6.24
		c1.3-5.2-0.43-9.35-5.03-12.07c-8.14-4.82-20.02-2.92-26.6,4.49c-6.59,7.42-8.03,16.27-6.37,25.76c1.14,6.49,4.2,12.23,7.46,17.86
		C260.95,373.22,261.47,373.95,262.46,374.42z M284.55,372.63c-0.36,1.06-0.36,2.12-0.48,3.15c-0.8,6.58-1.14,13.17-0.6,19.79
		c0.35,4.28,1.9,6.37,5.65,7.4c3.79,1.05,7.68,1.3,11.54,0.47c11.91-2.55,19.64-12.81,19.17-25.15
		c-0.4-10.43-7.01-19.16-18.13-19.81c-3.89-0.23-7.63,0.31-10.45,3.23c-3.59,3.73-4.55,8.29-3.16,13.25
		c0.72,2.57,2.52,4.32,5.02,5.31c0.64,0.25,1,0.38,0.92-0.6c-0.26-3.2,1.3-5.43,4.31-6.33c4.59-1.37,8.31,1.67,7.73,6.33
		c-0.32,2.6-2.48,5-5.28,5.6c-4.06,0.89-7.72-0.08-10.87-2.77C286.93,379.92,285.29,376.54,284.55,372.63z M286.9,349.21
		c-0.41,0.15-0.6,0.2-0.77,0.3c-4.36,2.46-8.03,5.67-10.75,9.91c-3.51,5.49-4.43,11.58-4.17,17.94c0.24,6.03,1.97,11.57,5.47,16.51
		c1.12,1.59,2.45,2.96,4.27,3.78c0.65,0.29,1.03,0.39,0.91-0.6c-0.16-1.35-0.22-2.71-0.28-4.07c-0.51-12.12,0.83-24.06,3.46-35.88
		C285.61,354.53,286.25,351.98,286.9,349.21z M308.18,403.9c-7.75,1.84-15.23,1.9-22.56-1.09c-0.72-0.29-0.97-0.07-0.94,0.65
		c0.06,1.57,0.35,3.1,0.61,4.64c0.36,2.15,0.64,4.29-0.16,6.41c-1.08,2.84-4.72,4.81-7.39,4c-0.66-0.2-1.52-0.48-1.6-1.11
		c-0.08-0.62,0.86-0.69,1.37-0.86c3.41-1.18,5.5-6.25,2.37-9.91c-1.49-1.74-3.36-2.8-5.65-3.11c-4.4-0.61-8.08,3.01-7.53,7.42
		c0.66,5.29,5.14,9.65,10.44,10.25c3.92,0.45,7.46-0.7,10.83-2.49c5.61-2.99,10.6-6.9,15.7-10.65
		C305.28,406.86,306.78,405.54,308.18,403.9z M263.84,480.2c-0.48-0.55-0.72-0.8-0.93-1.07c-4.04-5.08-8.08-10.17-12.12-15.25
		c-2.37-2.98-4.77-5.94-7.08-8.96c-0.77-1-1.76-0.72-2.63-0.6c-0.83,0.12-0.39,1.01-0.39,1.52c-0.03,9.31-0.02,18.61-0.02,27.92
		c0,1.97,0,1.9,1.94,1.99c1.07,0.05,1.21-0.34,1.21-1.29c-0.04-7.58-0.02-15.16-0.01-22.74c0-0.41-0.14-0.85,0.17-1.31
		c0.28,0.33,0.52,0.59,0.75,0.86c6.16,7.7,12.34,15.39,18.44,23.13c0.82,1.04,1.66,1.42,2.92,1.35c0.76-0.04,0.92-0.27,0.92-0.98
		c-0.02-9.83-0.02-19.65,0-29.48c0-0.72-0.17-1.06-0.93-0.95c-0.31,0.04-0.65,0.06-0.96,0c-1.13-0.21-1.29,0.33-1.29,1.33
		c0.04,7.02,0.02,14.04,0.02,21.06C263.84,477.76,263.84,478.79,263.84,480.2z M471.89,460.18c3.93,4.92,7.63,9.55,11.33,14.19
		c2.88,3.6,5.77,7.2,8.64,10.81c0.8,1.01,1.87,0.55,2.78,0.48c0.69-0.05,0.33-0.93,0.34-1.41c0.02-9.35,0.02-18.7,0.02-28.05
		c0-1.86,0-1.81-1.91-1.87c-0.94-0.03-1.2,0.23-1.2,1.19c0.04,7.74,0.02,15.49,0.02,23.23c0,0.42,0,0.84,0,1.52
		c-0.3-0.33-0.4-0.44-0.49-0.55c-3.52-4.43-7.03-8.85-10.55-13.28c-3.04-3.83-6.12-7.64-9.11-11.51c-0.78-1.01-1.75-0.71-2.62-0.6
		c-0.77,0.1-0.35,0.94-0.35,1.42c-0.03,9.31-0.02,18.62-0.02,27.93c0,2.07,0,2.01,2.07,2.08c0.97,0.03,1.09-0.33,1.08-1.16
		c-0.04-5.14-0.02-10.27-0.02-15.41C471.89,466.3,471.89,463.42,471.89,460.18z M285.67,469.97c0,4.89,0.02,9.79-0.02,14.68
		c-0.01,0.81,0.16,1.11,1.04,1.1c3.33-0.05,6.65,0.02,9.98-0.03c6.88-0.1,11.95-3.75,13.87-9.96c0.91-2.96,1.03-5.98,0.59-9.04
		c-1.05-7.22-6.16-11.99-13.45-12.34c-3.64-0.17-7.29-0.05-10.94-0.14c-0.97-0.02-1.1,0.34-1.09,1.18
		C285.69,460.26,285.67,465.12,285.67,469.97z M437.45,454.08c-2.15-0.08-4.15,0.39-6.05,1.32c-9.23,4.53-11.76,17.23-5.05,25.29
		c5.32,6.4,14.15,7.07,20.38,1.56c5.64-4.99,6.99-13.86,3.07-20.56C447.04,456.98,443.04,454.21,437.45,454.08z M179.81,470.14
		c0.07-2.89-0.67-5.57-2.01-8.08c-4.39-8.29-14.41-10.58-21.4-4.9c-6.9,5.6-8.09,16.07-2.62,23.11c4.72,6.07,12.75,7.54,18.95,3.34
		C177.46,480.41,179.64,475.78,179.81,470.14z M196.07,463.71c0.01,0,0.03,0,0.04,0c0,2.69-0.08,5.38,0.02,8.06
		c0.11,2.95,0.68,5.83,2.24,8.38c3.13,5.11,7.74,6.29,13.18,5.64c5.1-0.61,8.31-3.63,9.93-8.42c0.72-2.14,1.04-4.37,1.05-6.62
		c0.03-4.85,0.01-9.71,0.01-14.56c0-1.95,0-1.89-1.98-1.96c-0.99-0.03-1.18,0.32-1.17,1.22c0.04,4.89,0.05,9.79,0.01,14.68
		c-0.02,2.33-0.25,4.64-1.1,6.85c-1.53,3.98-4.58,6.07-8.87,6.09c-4.5,0.02-7.61-2.01-9.15-6.03c-0.8-2.08-1.08-4.27-1.08-6.49
		c-0.01-4.73,0-9.47,0-14.2c0-2.16,0-2.11-2.18-2.12c-0.86-0.01-0.97,0.33-0.96,1.06C196.09,458.1,196.07,460.91,196.07,463.71z
		 M352.58,485.61c-0.17-0.42-0.31-0.74-0.44-1.07c-4.05-9.71-8.12-19.42-12.15-29.14c-0.35-0.85-0.75-1.21-1.73-1.19
		c-0.96,0.02-1.47,0.27-1.85,1.2c-3.94,9.54-7.93,19.06-11.91,28.59c-0.72,1.71-0.71,1.63,1.18,1.75c1.16,0.07,1.67-0.35,2.06-1.41
		c0.95-2.55,2.05-5.04,3.05-7.57c0.24-0.6,0.54-0.86,1.22-0.85c4.09,0.03,8.18,0.04,12.27,0c0.74-0.01,1.04,0.29,1.29,0.93
		c0.84,2.12,1.74,4.22,2.61,6.32c1.11,2.67,1.11,2.67,4.01,2.54C352.28,485.71,352.36,485.67,352.58,485.61z M292.95,344.17
		c0.36-0.06,0.48-0.06,0.59-0.1c0.41-0.16,0.82-0.31,1.22-0.49c6.32-2.91,11.55-7.27,16.25-12.31c1.74-1.87,2.8-4.18,3.05-6.78
		c0.25-2.59-0.3-3.21-2.94-3.33c-0.2-0.01-0.4,0.02-0.59,0.03c-2.71,0.2-4.81,1.62-6.7,3.4c-2.29,2.17-3.98,4.79-5.5,7.53
		C296.2,335.92,294.5,339.91,292.95,344.17z M116.46,469.9c0,4.61,0,9.22,0,13.83c0,2.01,0,1.95,2.01,2.01
		c0.95,0.03,1.11-0.31,1.1-1.17c-0.04-4.09,0.01-8.18-0.04-12.27c-0.01-0.88,0.18-1.15,1.11-1.14c4.21,0.05,8.42-0.03,12.62,0.06
		c1.32,0.03,1-0.73,1.06-1.44c0.06-0.81,0-1.29-1.09-1.27c-4.21,0.07-8.42,0.01-12.62,0.05c-0.84,0.01-1.08-0.22-1.07-1.07
		c0.05-3.09,0.06-6.17,0-9.26c-0.02-0.95,0.25-1.2,1.2-1.19c5.09,0.05,10.18-0.03,15.27,0.06c1.32,0.02,1.04-0.73,1.05-1.44
		c0.01-0.74,0.2-1.45-1.07-1.44c-6.13,0.07-12.26,0.05-18.39,0.01c-0.87-0.01-1.15,0.18-1.14,1.11
		C116.48,460.2,116.46,465.05,116.46,469.9z M372.78,471.41c0,4.45,0.01,8.9-0.02,13.36c0,0.71,0.15,1.06,0.92,0.96
		c0.31-0.04,0.65-0.05,0.96,0c1.11,0.18,1.38-0.27,1.38-1.36c-0.05-8.7-0.01-17.41-0.05-26.11c0-0.94,0.24-1.23,1.2-1.21
		c2.93,0.06,5.86-0.05,8.78,0.06c1.18,0.04,1.29-0.42,1.25-1.37c-0.04-0.86,0.14-1.54-1.23-1.52c-7.58,0.08-15.15,0.04-22.73,0.04
		c-1.6,0-1.56,0-1.59,1.84c-0.01,0.79,0.21,1.01,1,1c3.01-0.05,6.01,0.02,9.02-0.04c0.9-0.02,1.15,0.22,1.14,1.13
		C372.75,462.59,372.78,467,372.78,471.41z M402.78,469.93c0,0.24,0,0.48,0,0.72c0,4.69,0.02,9.38-0.02,14.07
		c0,0.75,0.16,1.14,0.98,1.01c0.23-0.04,0.48-0.04,0.72,0c1.06,0.16,1.41-0.19,1.4-1.34c-0.05-9.34-0.03-18.68-0.03-28.02
		c0-2.05,0-2-2-2.04c-0.83-0.02-1.08,0.19-1.07,1.05C402.8,460.22,402.78,465.07,402.78,469.93z M284.39,434.43
		c-1.12,0-2.25,0.02-3.37-0.01c-0.53-0.01-0.7,0.18-0.69,0.7c0.02,1.84,0.02,3.69,0,5.54c-0.01,0.5,0.14,0.72,0.68,0.71
		c2.16-0.03,4.33,0.05,6.49-0.04c1.77-0.08,3.19-1.76,3.13-3.51c-0.07-1.94-1.46-3.35-3.36-3.38
		C286.31,434.42,285.35,434.43,284.39,434.43z M284.12,425.68c-1,0-2,0.02-3-0.01c-0.53-0.01-0.81,0.09-0.79,0.71
		c0.04,1.76,0.01,3.52,0.01,5.29c0,0.38-0.01,0.74,0.53,0.73c2.12-0.06,4.25,0.2,6.35-0.13c1.75-0.28,2.75-1.85,2.55-3.76
		c-0.18-1.75-1.33-2.8-3.12-2.82C285.8,425.67,284.96,425.68,284.12,425.68z"/>
	<path class="st1" d="M289.75,433.25c2.39-1.74,3.24-3.98,2.2-6.74c-1.27-3.38-4.17-3.28-7.03-3.09c-0.07-0.48,0.29-0.39,0.45-0.45
		c2.5-0.9,4.85-2.1,7.08-3.53c0.81-0.52,1.61-0.75,2.58-0.75c56.7,0.02,113.41,0.02,170.11,0.02c9.5,0,19.01,0.02,28.51-0.02
		c1.03,0,1.35,0.21,1.34,1.3c-0.05,9.15-0.03,18.29-0.03,27.44c0,1.55,0,1.55-1.54,1.55c-47.92,0-95.84,0-143.77,0
		c-77.16,0-154.31,0-231.47,0c-1.98,0-1.68,0.16-1.68-1.64c-0.01-9.15,0.01-18.3-0.02-27.44c0-0.93,0.22-1.21,1.18-1.21
		c49.49,0.02,98.97,0.02,148.46,0.01c0.63,0,1.1,0.13,1.56,0.64c2.42,2.63,5.45,4.21,8.98,4.65c1.02,0.13,1.1,0.53,1.1,1.35
		c-0.02,5.7,0,11.39-0.03,17.09c-0.01,0.86,0.16,1.19,1.11,1.17c2.81-0.07,5.61-0.03,8.42-0.02c0.69,0,1.36-0.08,2.02-0.26
		c2.09-0.58,3.67-2.27,3.87-4.14c0.28-2.62-0.64-4.47-2.8-5.62C290.17,433.47,290,433.38,289.75,433.25z M133.01,433.27
		c0.52-0.46,0.96-0.76,1.29-1.15c1.44-1.67,1.71-3.58,0.93-5.61c-0.74-1.93-2.16-3.08-4.27-3.12c-3.04-0.05-6.09,0-9.13-0.03
		c-0.64-0.01-0.81,0.21-0.81,0.83c0.02,6.21,0.02,12.42,0,18.63c0,0.56,0.15,0.77,0.74,0.76c3.16-0.03,6.33,0.07,9.49-0.06
		c3.35-0.13,5.5-2.65,5.18-5.9C136.23,435.53,135.04,434.11,133.01,433.27z M392.66,431.5c0-0.7-0.06-1.25,0.01-1.79
		c0.13-1.05-0.55-0.92-1.21-0.94c-0.68-0.02-1.19-0.07-1.18,0.94c0.06,4.29,0.07,8.58,0,12.88c-0.02,1.11,0.56,1,1.25,0.98
		c0.68-0.02,1.43,0.25,1.39-0.99c-0.09-2.52-0.06-5.05-0.01-7.58c0.04-2.16,2.2-4.21,4.32-4.22c1.93-0.01,2.85,1.13,2.93,3.86
		c0.08,2.6,0.11,5.21,0.03,7.82c-0.03,1.06,0.43,1.12,1.26,1.14c0.9,0.02,1.38-0.07,1.33-1.19c-0.1-2.24,0.02-4.49-0.05-6.74
		c-0.04-1.3,0.44-2.35,1.23-3.29c1.15-1.37,2.83-1.98,4.16-1.46c1.61,0.63,1.86,2.06,1.96,3.55c0.02,0.24,0.01,0.48,0.01,0.72
		c0,2.49,0.05,4.98-0.02,7.46c-0.04,1.3,0.83,0.86,1.45,0.92c0.66,0.06,1.22,0.12,1.19-0.91c-0.08-2.77-0.01-5.54-0.03-8.3
		c-0.01-1.05-0.16-2.08-0.5-3.07c-0.43-1.29-1.23-2.33-2.6-2.6c-2.25-0.45-4.31-0.04-5.91,1.78c-0.36,0.41-0.69,0.83-1.06,1.29
		C401.28,427.51,395.78,427.41,392.66,431.5z M479.04,436.41c0.97,2.34,1.86,4.43,2.68,6.54c0.26,0.67,0.71,0.66,1.24,0.62
		c0.52-0.04,1.09,0.2,1.4-0.55c1.88-4.5,3.8-8.99,5.7-13.49c0.1-0.23,0.31-0.5-0.07-0.72c-0.72-0.41-2.13,0.1-2.46,0.91
		c-0.41,1-0.81,2-1.23,3c-1.11,2.69-2.22,5.38-3.42,8.29c-0.77-1.92-1.43-3.61-2.15-5.28c-0.24-0.57-0.24-1.04,0-1.59
		c0.64-1.47,1.22-2.96,1.81-4.45c0.11-0.27,0.41-0.56,0.04-0.84c-0.48-0.36-1.79,0.03-2.02,0.61c-0.49,1.24-0.96,2.5-1.52,3.96
		c-0.6-1.53-1.09-2.8-1.59-4.06c-0.42-1.06-1.36-0.62-1.96-0.48c-0.54,0.13,0.01,0.73,0.14,1.08c0.55,1.42,1.16,2.81,1.73,4.22
		c0.12,0.29,0.32,0.66,0.23,0.9c-0.73,1.93-1.53,3.83-2.38,5.94c-1.54-3.73-2.98-7.2-4.42-10.67c-0.73-1.76-1.01-1.9-2.98-1.34
		c1.99,4.68,3.99,9.34,5.95,14.02c0.35,0.83,0.99,0.47,1.53,0.55c0.52,0.07,0.88-0.06,1.1-0.63
		C477.2,440.85,478.07,438.79,479.04,436.41z M304.55,437.05c1.76,0,3.53-0.05,5.29,0.02c0.87,0.04,1.01-0.37,1-1.07
		c-0.09-4.38-3.22-7.47-7.57-7.45c-3.48,0.01-6.21,2.09-7.17,5.47c-0.93,3.26,0.39,6.92,3.13,8.67c2.79,1.79,6.72,1.51,9.19-0.64
		c0.46-0.4,0.83-0.87,1.15-1.38c0.11-0.17,0.21-0.37,0.09-0.56c-0.3-0.51-1.98-0.47-2.37,0.04c-1.11,1.45-3.27,2.15-5.08,1.65
		c-1.81-0.51-3.34-2.23-3.6-3.99c-0.09-0.58,0.05-0.77,0.65-0.76C301.02,437.07,302.79,437.05,304.55,437.05z M147.99,437.05
		c1.8,0,3.61-0.02,5.41,0.01c0.6,0.01,0.86-0.14,0.85-0.8c-0.04-2.26-0.71-4.27-2.39-5.83c-3.13-2.91-8.23-2.52-10.93,0.81
		c-2.71,3.33-2.07,8.68,1.32,11.17c3.21,2.35,8.18,1.76,10.39-1.24c0.23-0.31,0.61-0.62,0.41-1.06c-0.24-0.5-1.91-0.49-2.29-0.01
		c-1.32,1.65-3.09,2.16-5.06,1.69c-2-0.48-3.17-1.93-3.67-3.91c-0.15-0.59-0.03-0.86,0.67-0.84
		C144.46,437.08,146.22,437.05,147.99,437.05z M340.24,437.05c1.72,0,3.45-0.05,5.17,0.02c0.88,0.03,1.07-0.3,1.06-1.11
		c-0.1-5.13-4.73-8.61-9.63-7.16c-2.97,0.88-4.76,2.94-5.24,5.97c-0.52,3.27,0.43,6.09,3.31,7.92c2.71,1.72,5.54,1.57,8.3-0.03
		c0.77-0.45,1.4-1.06,1.88-1.83c0.14-0.23,0.37-0.47,0.15-0.76c-0.34-0.47-1.93-0.44-2.3,0.02c-1.31,1.68-3.09,2.16-5.05,1.69
		c-1.99-0.48-3.16-1.93-3.65-3.92c-0.16-0.63,0.03-0.84,0.7-0.83C336.71,437.07,338.48,437.05,340.24,437.05z M226.43,443.82
		c4.32,0,7.49-3.24,7.49-7.65c0-4.39-3.19-7.62-7.52-7.62c-4.24,0-7.41,3.25-7.43,7.59C218.96,440.57,222.12,443.82,226.43,443.82z
		 M459.88,443.82c4.41,0.02,7.67-3.21,7.68-7.61c0.01-4.32-3.19-7.65-7.38-7.66c-4.37-0.02-7.55,3.16-7.56,7.55
		C452.59,440.53,455.67,443.8,459.88,443.82z M387.5,436.22c0.01-4.43-3.09-7.66-7.34-7.67c-4.33-0.02-7.58,3.24-7.6,7.6
		c-0.01,4.34,3.19,7.66,7.4,7.67C384.35,443.83,387.49,440.66,387.5,436.22z M422.97,428.55c-4.28,0-7.44,3.2-7.46,7.56
		c-0.02,4.48,3.09,7.71,7.43,7.71c4.3,0,7.53-3.3,7.51-7.68C430.42,431.82,427.2,428.55,422.97,428.55z M264.52,441.37
		c0.09,0.59,0.1,0.95,0.21,1.28c0.25,0.76,0.93,0.96,1.62,1.03c0.41,0.04,1.02,0.13,1.16-0.32c0.18-0.59,0.35-1.56-0.06-1.83
		c-0.91-0.62-0.61-1.4-0.64-2.14c-0.04-1.52,0.02-3.05-0.02-4.57c-0.05-1.7-0.3-3.3-1.56-4.66c-2.19-2.37-7.38-2.03-10.13,0.09
		c-0.62,0.48,0.15,0.9,0.27,1.34c0.14,0.52,0.48,0.36,0.82,0.13c0.98-0.65,2.04-1.09,3.2-1.31c3.26-0.6,5.37,1.58,4.65,4.82
		c-3.34-0.75-4.97-0.79-6.85-0.14c-2.34,0.81-3.63,2.68-3.32,4.8c0.33,2.25,2.32,3.85,4.76,3.94
		C260.91,443.92,262.78,443.1,264.52,441.37z M167.04,441.32c0.07,0.54,0.1,0.81,0.14,1.08c0.13,0.89,0.79,1.14,1.54,1.25
		c0.47,0.07,1.17,0.15,1.25-0.32c0.11-0.66,0.49-1.5-0.33-2.07c-0.46-0.33-0.41-0.84-0.41-1.32c-0.01-2.04,0.03-4.09-0.02-6.13
		c-0.05-1.73-0.71-3.19-2.16-4.23c-2.35-1.7-6.76-1.31-9.4,0.64c-0.68,0.5,0.15,0.96,0.27,1.43c0.12,0.48,0.46,0.28,0.74,0.1
		c0.88-0.57,1.81-1,2.84-1.24c3.48-0.8,5.62,1.17,5.15,4.74c-3.57-0.76-4.95-0.8-6.85-0.17c-2.44,0.8-3.7,2.6-3.39,4.85
		c0.3,2.21,2.32,3.82,4.78,3.91C163.45,443.91,165.32,443.08,167.04,441.32z M204.74,433.5c0,2.85,0,5.7,0,8.54
		c0,0.79-0.27,1.57,1.16,1.6c1.48,0.03,1.37-0.7,1.36-1.66c-0.03-2.09,0.03-4.17-0.03-6.26c-0.03-0.88,0.19-1.19,1.12-1.16
		c2.36,0.07,4.73-0.03,7.1,0.05c0.95,0.03,0.89-0.47,0.91-1.11c0.02-0.68-0.03-1.1-0.93-1.07c-2.4,0.07-4.81,0-7.22,0.04
		c-0.72,0.01-1-0.19-0.98-0.94c0.05-1.6,0.06-3.21,0-4.81c-0.03-0.82,0.26-1,1.03-0.99c2.93,0.04,5.85-0.02,8.78,0.04
		c0.92,0.02,1.07-0.34,1.01-1.11c-0.05-0.67,0.14-1.31-0.98-1.29c-3.77,0.07-7.54,0.06-11.31,0.01c-0.9-0.01-1.04,0.33-1.03,1.11
		C204.77,427.48,204.74,430.49,204.74,433.5z M369.85,434.64c0-2.65,0.03-5.29-0.02-7.94c-0.02-0.8,0.23-1.01,1-0.99
		c1.72,0.06,3.45-0.02,5.17,0.03c0.81,0.03,0.85-0.43,0.76-0.98c-0.09-0.53,0.43-1.39-0.73-1.39c-5.01,0.01-10.02,0.01-15.02,0
		c-1.16,0-0.63,0.87-0.72,1.4c-0.09,0.55-0.04,1,0.77,0.97c1.68-0.06,3.37,0.04,5.05-0.04c0.9-0.04,1.13,0.22,1.12,1.12
		c-0.05,5.05-0.04,10.1-0.01,15.15c0.01,1.8-0.41,1.53,1.68,1.62c0.83,0.03,0.99-0.27,0.98-1.02
		C369.83,439.93,369.85,437.28,369.85,434.64z M189.13,443.82c1.58,0,2.88-0.38,4-1.3c2.17-1.8,1.79-5.14-0.74-6.34
		c-0.54-0.25-1.12-0.43-1.69-0.59c-1.38-0.4-2.77-0.75-4.15-1.18c-0.79-0.24-1.29-0.77-1.28-1.68c0.01-0.89,0.38-1.54,1.18-1.93
		c0.58-0.28,1.19-0.45,1.85-0.46c1.53-0.03,2.94,0.36,4.17,1.27c0.64,0.48,0.85-0.01,1.1-0.4c0.2-0.31,0.73-0.56,0.2-1.09
		c-2.02-2-7.43-2.14-9.54-0.21c-2.29,2.11-1.66,5.34,1.26,6.38c0.6,0.21,1.23,0.36,1.84,0.54c1.11,0.32,2.24,0.59,3.33,0.98
		c0.78,0.27,1.4,0.75,1.42,1.72c0.02,1.02-0.5,1.66-1.37,2.06c-0.32,0.15-0.68,0.23-1.03,0.3c-2.09,0.38-3.98-0.22-5.67-1.4
		c-0.77-0.53-0.97-0.13-1.36,0.4c-0.45,0.62-0.44,0.98,0.25,1.39C184.68,443.33,186.57,443.86,189.13,443.82z M172.58,435.97
		c0.01,0,0.02,0,0.03,0c0,1.56-0.08,3.13,0.02,4.69c0.14,2.16,1.38,3.19,3.57,3.13c0.85-0.02,1.64-0.32,2.46-0.51
		c1.23-0.29,0.75-1.03,0.59-1.74c-0.22-1-0.79-0.43-1.25-0.29c-1.91,0.59-2.81-0.07-2.82-2.08c0-2.08,0-4.17,0-6.25
		c0-2.16,0-2.19,2.19-2.17c0.74,0.01,1.16-0.05,1.16-1c0-0.98-0.48-1.02-1.19-0.97c-0.36,0.03-0.73-0.03-1.08,0.01
		c-0.81,0.1-1.18-0.14-1.09-1.03c0.08-0.75,0.02-1.52,0.02-2.28c0-1.79,0-1.77-1.84-1.69c-0.57,0.02-0.77,0.19-0.76,0.76
		c0.03,1.04-0.03,2.09,0.02,3.12c0.04,0.78-0.12,1.26-1.03,1.1c-0.82-0.14-0.97,0.25-1,1c-0.03,0.86,0.34,1.05,1.06,0.94
		c0.85-0.13,0.99,0.31,0.96,1.03C172.55,433.16,172.58,434.57,172.58,435.97z M313.51,436.2C313.52,436.2,313.52,436.2,313.51,436.2
		c0.01,1.52-0.02,3.05,0.02,4.57c0.04,1.59,0.72,2.4,2.25,2.85c1.35,0.4,2.6-0.02,3.87-0.4c1.15-0.34,0.58-1.03,0.46-1.69
		c-0.17-0.96-0.7-0.46-1.13-0.32c-2.01,0.65-2.96-0.04-2.96-2.17c0-2.05,0-4.09,0-6.14c0-2.17,0-2.18,2.11-2.17
		c0.75,0.01,1.26,0.03,1.25-1.03c-0.01-1.03-0.55-0.96-1.21-0.93c-0.44,0.02-0.88-0.02-1.32,0.01c-0.63,0.05-0.85-0.22-0.84-0.84
		c0.03-1.12,0.01-2.25,0-3.37c0-0.26,0.11-0.69-0.23-0.73c-0.67-0.08-1.4-0.17-2.03,0.02c-0.51,0.16-0.22,0.85-0.24,1.3
		c-0.04,0.88-0.05,1.77,0,2.65c0.04,0.72-0.18,1.06-0.94,0.96c-0.71-0.09-1.07,0.07-1.08,0.94c-0.01,0.92,0.39,1.11,1.15,1
		c0.71-0.1,0.88,0.24,0.87,0.89C313.49,433.15,313.51,434.67,313.51,436.2z M326.37,426.26c0-0.48-0.06-0.97,0.01-1.44
		c0.2-1.23-0.64-0.99-1.33-1.02c-0.75-0.04-1.33-0.04-1.21,1.02c0.11,0.95-0.03,1.93,0.04,2.88c0.06,0.83-0.21,1.21-1.06,1.08
		c-0.76-0.12-0.97,0.22-0.94,0.95c0.02,0.65,0.08,1.14,0.9,1c0.94-0.16,1.13,0.27,1.11,1.14c-0.05,2.81-0.03,5.61-0.02,8.42
		c0.01,2.41,1.27,3.61,3.68,3.5c0.85-0.04,1.64-0.32,2.45-0.55c1.14-0.34,0.59-1.04,0.46-1.7c-0.18-0.97-0.72-0.44-1.14-0.31
		c-1.97,0.63-2.94-0.05-2.94-2.07c-0.01-2,0-4.01,0-6.01c0-2.34,0-2.39,2.36-2.38c0.84,0,0.97-0.32,0.98-1.05
		c0.02-0.76-0.25-0.93-0.97-0.94c-2.38-0.02-2.38-0.05-2.38-2.39C326.37,426.34,326.37,426.3,326.37,426.26z M435.58,431.77
		c0-0.85-0.06-1.5,0.01-2.12c0.12-1.01-0.54-0.88-1.13-0.86c-0.59,0.02-1.29-0.24-1.28,0.86c0.05,4.36,0.04,8.73,0.01,13.09
		c-0.01,1.35,0.95,0.72,1.52,0.82c0.61,0.1,1.14,0.11,1.1-0.86c-0.08-2.4,0.04-4.81-0.05-7.21c-0.05-1.4,0.54-2.37,1.53-3.21
		c0.85-0.72,1.86-1.08,2.94-1.25c0.3-0.05,0.75,0.07,0.79-0.34c0.07-0.63,0.18-1.35-0.06-1.88c-0.2-0.43-0.94-0.22-1.44-0.13
		c-0.84,0.16-1.6,0.54-2.2,1.15C436.78,430.4,436.27,431.01,435.58,431.77z M351.51,431.81c0-0.87-0.06-1.5,0.01-2.11
		c0.13-1.08-0.59-0.9-1.22-0.92c-0.66-0.02-1.21-0.1-1.2,0.93c0.06,4.32,0.06,8.65,0,12.97c-0.02,1.08,0.6,0.91,1.22,0.89
		c0.61-0.02,1.38,0.31,1.34-0.89c-0.08-2.44,0-4.88-0.04-7.32c-0.01-0.85,0.24-1.56,0.74-2.22c0.92-1.21,2.19-1.82,3.65-2.09
		c0.33-0.06,0.82,0.08,0.87-0.42c0.06-0.62,0.29-1.38-0.11-1.85c-0.34-0.39-1.05-0.17-1.59-0.03c-1.05,0.27-1.87,0.88-2.56,1.69
		C352.3,430.82,352,431.21,351.51,431.81z M239.13,431.85c0-0.97-0.02-1.63,0.01-2.28c0.05-1.16-0.81-0.7-1.35-0.77
		c-0.58-0.07-1.06-0.08-1.05,0.81c0.04,4.37,0.05,8.74,0,13.11c-0.01,1.11,0.67,0.85,1.25,0.85c0.59,0,1.29,0.26,1.25-0.85
		c-0.07-2.4,0.02-4.81-0.04-7.21c-0.03-1.14,0.41-2.02,1.14-2.8c0.92-0.97,2.08-1.47,3.38-1.67c0.3-0.05,0.72,0.06,0.79-0.37
		c0.09-0.63,0.26-1.36-0.08-1.87c-0.28-0.42-0.97-0.2-1.47-0.09c-1.18,0.26-2.1,0.94-2.86,1.87
		C239.83,430.9,239.58,431.25,239.13,431.85z M446.17,432c0-0.94-0.06-1.58,0.01-2.21c0.11-0.92-0.34-1.05-1.12-1.02
		c-0.68,0.03-1.2-0.05-1.19,0.96c0.05,4.29,0.06,8.57-0.01,12.86c-0.02,1.09,0.56,1.01,1.26,0.99c0.66-0.02,1.32,0.19,1.28-0.96
		c-0.1-2.36,0.03-4.73-0.05-7.09c-0.05-1.49,0.63-2.52,1.72-3.37c0.84-0.65,1.81-1.01,2.86-1.14c0.3-0.03,0.72,0.04,0.74-0.42
		c0.02-0.63,0.29-1.39-0.13-1.85c-0.34-0.37-1.05-0.15-1.59-0.02C448.26,429.16,447.28,430.42,446.17,432z"/>
	<path class="st2" d="M179.85,362.81c3.05,0.98,5.81,2.24,8.28,4.06c5.98,4.42,9.04,10.45,9.65,17.78c0.36,4.27,0.2,8.51-1.51,12.52
		c-2.71,6.35-7.66,10.33-13.88,12.9c-5.55,2.29-11.38,3.23-17.36,3.25c-15.72,0.04-31.43,0-47.15,0.03c-1.05,0-1.42-0.2-1.41-1.36
		c0.04-32.01,0.03-64.02,0.01-96.03c0-1.01,0.27-1.24,1.25-1.24c17.4,0.03,34.8,0.1,52.2-0.01c10.32-0.06,17.3,4.94,21.38,14.04
		c4.08,9.09,3.32,18.03-2.2,26.42c-1.98,3.01-4.73,5.2-7.89,6.88C180.8,362.28,180.38,362.51,179.85,362.81z M153.14,372.53
		c-4.25,0-8.49,0.02-12.74-0.02c-0.77-0.01-1.11,0.08-1.11,1c0.04,6.49,0.04,12.99,0,19.48c0,0.81,0.24,0.98,1,0.98
		c8.25-0.03,16.51,0,24.76-0.03c2.14-0.01,4.1-0.68,5.78-2.03c3.84-3.1,4.53-7.22,3.48-11.72c-1.18-5.06-4.68-7.67-9.88-7.67
		C160.67,372.53,156.91,372.53,153.14,372.53z M151.6,334.25c-3.77,0-7.54,0.01-11.3-0.01c-0.63,0-1.01,0.01-1,0.86
		c0.04,6.22,0.03,12.43,0.01,18.65c0,0.7,0.22,0.87,0.89,0.87c7.18-0.02,14.35,0.06,21.53-0.04c5.07-0.07,8.47-3.12,9.28-8.02
		c0.2-1.23,0.17-2.48,0.08-3.72c-0.4-5.24-4-8.58-9.25-8.58C158.42,334.25,155.01,334.25,151.6,334.25z"/>
	<path class="st2" d="M353.12,314.75c3.18,0,6.1,0,9.02,0c7.26,0,14.52,0.06,21.78-0.02c7.62-0.08,13.54,3.13,18.02,9.12
		c7.15,9.56,7,23.27-0.27,32.48c-1.97,2.5-4.44,4.38-7.25,5.84c-0.35,0.18-0.7,0.37-1.18,0.62c2.8,0.92,5.35,2.02,7.66,3.63
		c6.76,4.69,9.92,11.3,10.39,19.38c0.36,6.13-0.79,11.8-4.79,16.66c-3.53,4.29-8.16,6.88-13.35,8.59c-4.8,1.58-9.75,2.27-14.78,2.27
		c-15.68,0.02-31.36,0-47.04,0.03c-1.06,0-1.42-0.22-1.41-1.37c0.06-7.42,0.04-14.85,0.01-22.27c0-0.83,0.26-1.37,0.86-1.96
		c3.95-3.88,7.34-8.27,11-12.42c4.49-5.09,8.73-10.36,12.07-16.3c0.61-1.08,1.23-2.17,1.71-3.3c0.37-0.86,0.84-1.17,1.8-1.16
		c5.69,0.05,11.39,0.03,17.08,0.02c1.29,0,2.56-0.11,3.78-0.55c3.41-1.23,5.58-3.53,6.09-7.2c0.51-3.65,0.29-7.15-2.42-10.01
		c-1.66-1.75-3.72-2.59-6.13-2.59c-4.77,0-9.55,0-14.32,0c-0.46,0-1,0.23-1.05-0.67C359.99,326.62,357.74,320.35,353.12,314.75z
		 M366.24,393.95c4.01,0,8.01,0,12.02,0c1.76,0,3.41-0.43,4.93-1.31c4.1-2.37,5.9-7.31,4.56-12.48c-1.29-4.98-4.7-7.64-9.8-7.64
		c-8.05,0-16.11,0.01-24.16-0.02c-0.8,0-1.09,0.14-1.09,1.03c0.04,6.45,0.05,12.91,0,19.36c-0.01,0.97,0.33,1.08,1.16,1.08
		C357.99,393.93,362.12,393.95,366.24,393.95z"/>
	<path class="st2" d="M258.3,374.45c-0.6,0-1.02,0-1.45,0c-9.82,0-19.65,0.02-29.47-0.02c-0.99,0-1.25,0.22-1.25,1.23
		c0.04,12.11,0.01,24.23,0.05,36.34c0,1.03-0.21,1.36-1.31,1.35c-6.82-0.05-13.63-0.05-20.45,0c-0.93,0.01-1.11-0.27-1.11-1.14
		c0.02-32.13,0.02-64.26-0.01-96.4c0-0.95,0.3-1.09,1.15-1.08c21.53,0.02,43.06,0.03,64.6-0.01c0.99,0,1.22,0.31,1.16,1.21
		c-0.08,1.12,0.31,2.42-0.16,3.31c-0.45,0.86-1.91,0.73-2.91,1.09c-6.68,2.45-11.35,7.05-14.39,13.39c-0.4,0.83-0.83,1.06-1.7,1.06
		c-7.9-0.03-15.8-0.01-23.7-0.04c-0.9,0-1.23,0.16-1.23,1.16c0.05,6.34,0.04,12.68,0.01,19.01c-0.01,0.86,0.25,1.05,1.07,1.05
		c7.34-0.03,14.68-0.01,22.01-0.04c0.86,0,1.23,0.2,1.44,1.1C252.14,363.22,255.07,368.77,258.3,374.45z"/>
	<path class="st2" d="M453.61,314.75c13.39,0,26.79,0.01,40.18-0.03c1.02,0,1.23,0.27,1.22,1.25c-0.05,5.9-0.04,11.79,0,17.69
		c0.01,0.89-0.2,1.13-1.11,1.13c-9.1-0.04-18.21-0.03-27.31-0.02c-1.73,0-1.57-0.29-1.57,1.62c0,25.15-0.01,50.31,0.03,75.46
		c0,1.25-0.34,1.51-1.53,1.5c-6.62-0.06-13.23-0.06-19.85,0c-1.13,0.01-1.46-0.23-1.46-1.42c0.04-25.23,0.02-50.47,0.06-75.7
		c0-1.24-0.32-1.5-1.52-1.49c-9.14,0.05-18.29,0.02-27.43,0.05c-0.93,0-1.2-0.22-1.19-1.18c0.05-5.86,0.05-11.71,0-17.57
		c-0.01-1.02,0.19-1.33,1.29-1.32C426.82,314.76,440.22,314.75,453.61,314.75z"/>
	<path class="st1" d="M307.1,316.56c-0.15-0.8,0.19-1.27,0.62-1.62c4.02-3.27,8.1-6.49,13.3-7.67c13.52-3.08,32.25,3.24,35.96,22.06
		c1.52,7.7,0.21,15.15-2.68,22.36c-2.72,6.77-6.89,12.65-11.59,18.15c-4.55,5.34-8.98,10.78-13.86,15.83
		c-1.16,1.2-2.43,2.27-4.09,3.29c0.41-1.33,0.79-2.37,1.04-3.45c2.22-9.55-0.72-17.47-8.05-23.66c-6.6-5.58-14.2-7.36-22.56-4.5
		c-3.06,1.05-5.87,2.58-7.75,5.39c-0.2,0.3-0.5,0.65-0.88,0.43c-0.38-0.22-0.02-0.59,0.06-0.86c1.54-5.22,3.41-10.34,5.34-15.42
		c0.2-0.54,0.57-0.82,1.05-1.06c5.28-2.69,10.6-5.31,15.5-8.66c4.33-2.96,8.34-6.26,10.96-10.94c0.96-1.72,1.68-3.54,1.83-5.54
		c0.23-3.13-1.31-5.22-4.4-5.9c-2.93-0.64-5.73-0.12-8.42,1.12C308.02,316.09,307.6,316.31,307.1,316.56z"/>
	<path class="st1" d="M262.46,374.42c-1-0.47-1.51-1.2-1.95-1.95c-3.26-5.63-6.32-11.37-7.46-17.86
		c-1.66-9.49-0.22-18.34,6.37-25.76c6.58-7.41,18.46-9.31,26.6-4.49c4.6,2.72,6.33,6.87,5.03,12.07c-0.54,2.14-1.44,4.16-2.15,6.24
		c-0.3,0.87-0.74,1.75-0.76,2.64c-0.04,1.66-1.02,2.27-2.33,2.86c-4.75,2.14-9.4,4.46-13.52,7.72
		C266.34,360.6,263.09,366.74,262.46,374.42z"/>
	<path class="st2" d="M284.55,372.63c0.74,3.92,2.38,7.29,5.39,9.87c3.15,2.7,6.81,3.66,10.87,2.77c2.79-0.61,4.95-3.01,5.28-5.6
		c0.58-4.66-3.14-7.71-7.73-6.33c-3.02,0.9-4.58,3.13-4.31,6.33c0.08,0.98-0.28,0.85-0.92,0.6c-2.5-1-4.3-2.74-5.02-5.31
		c-1.39-4.96-0.44-9.52,3.16-13.25c2.81-2.91,6.56-3.46,10.45-3.23c11.12,0.65,17.73,9.38,18.13,19.81
		c0.47,12.34-7.26,22.6-19.17,25.15c-3.86,0.83-7.75,0.58-11.54-0.47c-3.76-1.04-5.3-3.13-5.65-7.4c-0.54-6.62-0.21-13.21,0.6-19.79
		C284.19,374.75,284.19,373.69,284.55,372.63z"/>
	<path class="st2" d="M286.9,349.21c-0.66,2.77-1.29,5.32-1.86,7.89c-2.63,11.82-3.97,23.76-3.46,35.88
		c0.06,1.36,0.11,2.72,0.28,4.07c0.12,0.99-0.26,0.89-0.91,0.6c-1.81-0.82-3.14-2.19-4.27-3.78c-3.5-4.95-5.23-10.49-5.47-16.51
		c-0.25-6.36,0.66-12.45,4.17-17.94c2.72-4.25,6.39-7.45,10.75-9.91C286.3,349.41,286.5,349.37,286.9,349.21z"/>
	<path class="st1" d="M308.18,403.9c-1.4,1.64-2.9,2.96-4.51,4.15c-5.1,3.75-10.09,7.66-15.7,10.65c-3.36,1.79-6.91,2.94-10.83,2.49
		c-5.3-0.6-9.78-4.96-10.44-10.25c-0.55-4.41,3.13-8.03,7.53-7.42c2.29,0.32,4.17,1.37,5.65,3.11c3.13,3.66,1.04,8.73-2.37,9.91
		c-0.51,0.18-1.45,0.24-1.37,0.86c0.08,0.63,0.94,0.91,1.6,1.11c2.67,0.81,6.3-1.16,7.39-4c0.81-2.12,0.52-4.26,0.16-6.41
		c-0.26-1.54-0.55-3.08-0.61-4.64c-0.03-0.72,0.22-0.94,0.94-0.65C292.95,405.79,300.43,405.74,308.18,403.9z"/>
	<path class="st2" d="M263.84,480.2c0-1.41,0-2.44,0-3.48c0-7.02,0.02-14.04-0.02-21.06c-0.01-1,0.16-1.54,1.29-1.33
		c0.31,0.06,0.64,0.04,0.96,0c0.77-0.11,0.93,0.24,0.93,0.95c-0.02,9.83-0.02,19.65,0,29.48c0,0.71-0.16,0.94-0.92,0.98
		c-1.26,0.07-2.1-0.31-2.92-1.35c-6.1-7.75-12.28-15.43-18.44-23.13c-0.22-0.28-0.46-0.54-0.75-0.86c-0.31,0.46-0.17,0.91-0.17,1.31
		c-0.01,7.58-0.02,15.16,0.01,22.74c0,0.94-0.14,1.34-1.21,1.29c-1.94-0.09-1.94-0.02-1.94-1.99c0-9.31-0.01-18.61,0.02-27.92
		c0-0.51-0.44-1.4,0.39-1.52c0.87-0.13,1.86-0.4,2.63,0.6c2.32,3.02,4.72,5.98,7.08,8.96c4.04,5.08,8.08,10.17,12.12,15.25
		C263.13,479.4,263.37,479.66,263.84,480.2z"/>
	<path class="st2" d="M471.89,460.18c0,3.25,0,6.13,0,9c0,5.14-0.02,10.27,0.02,15.41c0.01,0.84-0.11,1.19-1.08,1.16
		c-2.06-0.07-2.07-0.01-2.07-2.08c0-9.31-0.01-18.62,0.02-27.93c0-0.48-0.42-1.32,0.35-1.42c0.87-0.11,1.84-0.41,2.62,0.6
		c2.99,3.87,6.07,7.68,9.11,11.51c3.52,4.43,7.03,8.85,10.55,13.28c0.09,0.11,0.19,0.22,0.49,0.55c0-0.68,0-1.1,0-1.52
		c0-7.74,0.02-15.49-0.02-23.23c-0.01-0.96,0.26-1.22,1.2-1.19c1.91,0.06,1.91,0.01,1.91,1.87c0,9.35,0.01,18.7-0.02,28.05
		c0,0.49,0.35,1.36-0.34,1.41c-0.91,0.07-1.98,0.53-2.78-0.48c-2.86-3.61-5.76-7.21-8.64-10.81
		C479.52,469.73,475.81,465.09,471.89,460.18z"/>
	<path class="st2" d="M285.67,469.97c0-4.85,0.02-9.7-0.02-14.56c-0.01-0.84,0.12-1.2,1.09-1.18c3.64,0.09,7.3-0.04,10.94,0.14
		c7.29,0.35,12.4,5.12,13.45,12.34c0.44,3.06,0.33,6.08-0.59,9.04c-1.92,6.22-6.99,9.86-13.87,9.96c-3.33,0.05-6.65-0.02-9.98,0.03
		c-0.88,0.01-1.05-0.29-1.04-1.1C285.69,479.75,285.67,474.86,285.67,469.97z M288.8,469.96c0,3.93,0.02,7.86-0.02,11.78
		c-0.01,0.84,0.13,1.21,1.1,1.18c2.28-0.07,4.57,0,6.85-0.03c5.18-0.06,9.2-2.98,10.72-7.87c0.99-3.16,1.06-6.38,0.14-9.59
		c-1.5-5.27-5.58-8.36-11.07-8.37c-2.2-0.01-4.41,0.04-6.61-0.02c-0.89-0.03-1.16,0.21-1.15,1.13
		C288.83,462.1,288.8,466.03,288.8,469.96z"/>
	<path class="st2" d="M437.45,454.08c5.59,0.13,9.59,2.9,12.35,7.61c3.92,6.69,2.57,15.56-3.07,20.56
		c-6.23,5.51-15.05,4.84-20.38-1.56c-6.71-8.06-4.18-20.76,5.05-25.29C433.3,454.47,435.31,454,437.45,454.08z M448.89,470.24
		c0-3.29-0.89-6.24-2.86-8.8c-4.46-5.82-12.61-6.02-17.13-0.45c-4.2,5.18-4.25,12.67-0.12,17.9c4.09,5.18,11.42,5.67,16.07,1.03
		C447.53,477.25,448.77,473.93,448.89,470.24z"/>
	<path class="st2" d="M179.81,470.14c-0.18,5.63-2.35,10.26-7.08,13.46c-6.19,4.2-14.22,2.73-18.95-3.34
		c-5.47-7.03-4.29-17.5,2.62-23.11c6.99-5.67,17.01-3.39,21.4,4.9C179.14,464.58,179.88,467.25,179.81,470.14z M176.66,470
		c0.01-2.8-0.75-5.39-2.26-7.73c-4.38-6.82-13.51-7.14-18.2-0.66c-3.69,5.1-3.59,12.2,0.24,17.15c4.49,5.81,12.83,5.79,17.27-0.05
		C175.67,476.14,176.64,473.23,176.66,470z"/>
	<path class="st2" d="M196.07,463.71c0-2.81,0.02-5.62-0.01-8.43c-0.01-0.73,0.11-1.06,0.96-1.06c2.18,0.02,2.18-0.03,2.18,2.12
		c0,4.73,0,9.47,0,14.2c0,2.22,0.28,4.41,1.08,6.49c1.54,4.02,4.65,6.04,9.15,6.03c4.28-0.02,7.34-2.11,8.87-6.09
		c0.85-2.2,1.08-4.52,1.1-6.85c0.05-4.89,0.04-9.79-0.01-14.68c-0.01-0.91,0.18-1.26,1.17-1.22c1.98,0.07,1.98,0.01,1.98,1.96
		c0,4.85,0.02,9.71-0.01,14.56c-0.02,2.25-0.33,4.47-1.05,6.62c-1.62,4.8-4.83,7.81-9.93,8.42c-5.44,0.65-10.05-0.53-13.18-5.64
		c-1.57-2.55-2.13-5.44-2.24-8.38c-0.1-2.68-0.02-5.37-0.02-8.06C196.1,463.71,196.08,463.71,196.07,463.71z"/>
	<path class="st2" d="M352.58,485.61c-0.23,0.06-0.3,0.09-0.38,0.1c-2.9,0.13-2.9,0.13-4.01-2.54c-0.87-2.11-1.78-4.2-2.61-6.32
		c-0.25-0.64-0.55-0.94-1.29-0.93c-4.09,0.04-8.18,0.04-12.27,0c-0.68-0.01-0.98,0.25-1.22,0.85c-1,2.53-2.11,5.02-3.05,7.57
		c-0.39,1.06-0.9,1.48-2.06,1.41c-1.89-0.11-1.9-0.03-1.18-1.75c3.98-9.53,7.97-19.05,11.91-28.59c0.39-0.93,0.89-1.18,1.85-1.2
		c0.98-0.02,1.38,0.34,1.73,1.19c4.03,9.72,8.09,19.43,12.15,29.14C352.28,484.87,352.41,485.19,352.58,485.61z M344.43,473.37
		c-2.09-5.16-4.1-10.14-6.2-15.33c-2.17,5.22-4.25,10.24-6.37,15.33C336.12,473.37,340.19,473.37,344.43,473.37z"/>
	<path class="st2" d="M292.95,344.17c1.56-4.25,3.25-8.24,5.36-12.05c1.52-2.74,3.21-5.36,5.5-7.53c1.89-1.79,3.99-3.21,6.7-3.4
		c0.2-0.01,0.4-0.04,0.59-0.03c2.64,0.12,3.19,0.74,2.94,3.33c-0.25,2.6-1.3,4.91-3.05,6.78c-4.69,5.04-9.93,9.4-16.25,12.31
		c-0.4,0.18-0.81,0.34-1.22,0.49C293.43,344.11,293.3,344.11,292.95,344.17z"/>
	<path class="st2" d="M116.46,469.9c0-4.85,0.03-9.7-0.02-14.55c-0.01-0.93,0.27-1.12,1.14-1.11c6.13,0.04,12.26,0.06,18.39-0.01
		c1.28-0.01,1.08,0.69,1.07,1.44c-0.01,0.72,0.26,1.47-1.05,1.44c-5.09-0.08-10.18-0.01-15.27-0.06c-0.94-0.01-1.22,0.23-1.2,1.19
		c0.06,3.09,0.05,6.17,0,9.26c-0.01,0.84,0.23,1.08,1.07,1.07c4.21-0.04,8.42,0.03,12.62-0.05c1.09-0.02,1.15,0.45,1.09,1.27
		c-0.05,0.71,0.26,1.47-1.06,1.44c-4.21-0.09-8.42,0-12.62-0.06c-0.93-0.01-1.12,0.27-1.11,1.14c0.05,4.09,0,8.18,0.04,12.27
		c0.01,0.85-0.14,1.2-1.1,1.17c-2.01-0.06-2.01,0-2.01-2.01C116.46,479.12,116.46,474.51,116.46,469.9z"/>
	<path class="st2" d="M372.78,471.41c0-4.41-0.03-8.82,0.02-13.24c0.01-0.91-0.24-1.15-1.14-1.13c-3.01,0.06-6.01-0.01-9.02,0.04
		c-0.79,0.01-1.01-0.21-1-1c0.03-1.84-0.01-1.84,1.59-1.84c7.58,0,15.15,0.04,22.73-0.04c1.37-0.01,1.19,0.66,1.23,1.52
		c0.04,0.95-0.07,1.41-1.25,1.37c-2.92-0.11-5.85,0-8.78-0.06c-0.96-0.02-1.2,0.27-1.2,1.21c0.03,8.7,0,17.41,0.05,26.11
		c0.01,1.09-0.26,1.55-1.38,1.36c-0.31-0.05-0.64-0.04-0.96,0c-0.77,0.1-0.93-0.25-0.92-0.96
		C372.8,480.32,372.78,475.87,372.78,471.41z"/>
	<path class="st2" d="M402.78,469.93c0-4.85,0.02-9.7-0.02-14.55c-0.01-0.86,0.25-1.07,1.07-1.05c2,0.04,2,0,2,2.04
		c0,9.34-0.02,18.68,0.03,28.02c0.01,1.14-0.34,1.5-1.4,1.34c-0.23-0.04-0.49-0.04-0.72,0c-0.82,0.13-0.98-0.25-0.98-1.01
		c0.03-4.69,0.02-9.38,0.02-14.07C402.78,470.41,402.78,470.17,402.78,469.93z"/>
	<path class="st1" d="M284.39,434.43c0.96,0,1.92-0.01,2.89,0c1.89,0.03,3.29,1.45,3.36,3.38c0.06,1.74-1.36,3.43-3.13,3.51
		c-2.16,0.09-4.33,0.01-6.49,0.04c-0.54,0.01-0.68-0.21-0.68-0.71c0.02-1.84,0.02-3.69,0-5.54c-0.01-0.52,0.17-0.71,0.69-0.7
		C282.14,434.45,283.26,434.43,284.39,434.43z"/>
	<path class="st1" d="M284.12,425.68c0.84,0,1.68-0.01,2.52,0c1.79,0.03,2.94,1.07,3.12,2.82c0.2,1.91-0.79,3.48-2.55,3.76
		c-2.1,0.34-4.23,0.08-6.35,0.13c-0.54,0.01-0.53-0.35-0.53-0.73c0-1.76,0.03-3.52-0.01-5.29c-0.01-0.63,0.27-0.73,0.79-0.71
		C282.11,425.7,283.11,425.68,284.12,425.68z"/>
	<path class="st0" d="M133.01,433.27c2.03,0.84,3.21,2.27,3.42,4.36c0.32,3.25-1.84,5.77-5.18,5.9c-3.16,0.13-6.33,0.03-9.49,0.06
		c-0.59,0.01-0.74-0.2-0.74-0.76c0.02-6.21,0.02-12.42,0-18.63c0-0.62,0.17-0.83,0.81-0.83c3.04,0.03,6.09-0.02,9.13,0.03
		c2.12,0.03,3.53,1.19,4.27,3.12c0.78,2.02,0.51,3.93-0.93,5.61C133.97,432.5,133.54,432.81,133.01,433.27z M127.58,434.43
		c-1.08,0-2.16,0.02-3.24-0.01c-0.49-0.01-0.73,0.14-0.73,0.67c0.02,1.88,0.01,3.76,0,5.64c0,0.47,0.2,0.62,0.65,0.62
		c2.16-0.01,4.32,0.06,6.48-0.03c1.86-0.08,3.17-1.7,3.09-3.6c-0.08-1.97-1.39-3.26-3.38-3.29
		C129.5,434.42,128.54,434.43,127.58,434.43z M127.42,425.68c-1.04,0-2.08,0.02-3.12-0.01c-0.52-0.01-0.7,0.18-0.7,0.7
		c0.02,1.76,0.01,3.52,0.01,5.28c0,0.37-0.02,0.76,0.52,0.75c2.15-0.06,4.32,0.22,6.46-0.15c1.65-0.29,2.64-1.89,2.46-3.72
		c-0.17-1.72-1.36-2.81-3.11-2.84C129.1,425.67,128.26,425.68,127.42,425.68z"/>
	<path class="st0" d="M392.66,431.5c3.12-4.09,8.62-3.99,9.96,0.24c0.37-0.45,0.7-0.88,1.06-1.29c1.6-1.82,3.66-2.23,5.91-1.78
		c1.37,0.27,2.17,1.31,2.6,2.6c0.33,0.99,0.49,2.03,0.5,3.07c0.02,2.77-0.04,5.54,0.03,8.3c0.03,1.04-0.53,0.98-1.19,0.91
		c-0.62-0.06-1.49,0.38-1.45-0.92c0.07-2.48,0.02-4.97,0.02-7.46c0-0.24,0.01-0.48-0.01-0.72c-0.09-1.49-0.35-2.92-1.96-3.55
		c-1.33-0.52-3.01,0.09-4.16,1.46c-0.79,0.94-1.26,1.99-1.23,3.29c0.07,2.24-0.05,4.5,0.05,6.74c0.05,1.12-0.43,1.21-1.33,1.19
		c-0.83-0.02-1.29-0.08-1.26-1.14c0.07-2.6,0.05-5.21-0.03-7.82c-0.08-2.72-1.01-3.86-2.93-3.86c-2.13,0.01-4.28,2.06-4.32,4.22
		c-0.05,2.53-0.07,5.06,0.01,7.58c0.04,1.23-0.71,0.97-1.39,0.99c-0.69,0.02-1.27,0.13-1.25-0.98c0.07-4.29,0.06-8.58,0-12.88
		c-0.01-1.02,0.5-0.96,1.18-0.94c0.65,0.01,1.34-0.11,1.21,0.94C392.6,430.25,392.66,430.8,392.66,431.5z"/>
	<path class="st0" d="M479.04,436.41c-0.97,2.38-1.84,4.44-2.64,6.53c-0.22,0.58-0.58,0.71-1.1,0.63c-0.54-0.08-1.18,0.28-1.53-0.55
		c-1.96-4.68-3.96-9.35-5.95-14.02c1.97-0.55,2.25-0.42,2.98,1.34c1.44,3.47,2.87,6.94,4.42,10.67c0.86-2.11,1.65-4.01,2.38-5.94
		c0.09-0.24-0.11-0.61-0.23-0.9c-0.57-1.41-1.18-2.8-1.73-4.22c-0.13-0.35-0.68-0.95-0.14-1.08c0.6-0.14,1.54-0.58,1.96,0.48
		c0.5,1.26,0.99,2.53,1.59,4.06c0.56-1.46,1.03-2.71,1.52-3.96c0.23-0.58,1.54-0.97,2.02-0.61c0.37,0.28,0.07,0.58-0.04,0.84
		c-0.59,1.49-1.18,2.98-1.81,4.45c-0.24,0.56-0.25,1.03,0,1.59c0.72,1.67,1.38,3.36,2.15,5.28c1.2-2.91,2.31-5.6,3.42-8.29
		c0.41-1,0.81-2,1.23-3c0.33-0.8,1.74-1.31,2.46-0.91c0.38,0.21,0.17,0.48,0.07,0.72c-1.9,4.5-3.82,8.98-5.7,13.49
		c-0.31,0.75-0.88,0.51-1.4,0.55c-0.53,0.04-0.98,0.04-1.24-0.62C480.91,440.84,480.01,438.75,479.04,436.41z"/>
	<path class="st0" d="M304.55,437.05c-1.76,0-3.53,0.02-5.29-0.01c-0.6-0.01-0.74,0.18-0.65,0.76c0.26,1.75,1.79,3.48,3.6,3.99
		c1.81,0.5,3.97-0.2,5.08-1.65c0.39-0.51,2.07-0.55,2.37-0.04c0.12,0.19,0.02,0.39-0.09,0.56c-0.32,0.52-0.69,0.98-1.15,1.38
		c-2.47,2.15-6.4,2.43-9.19,0.64c-2.74-1.76-4.06-5.41-3.13-8.67c0.96-3.37,3.69-5.45,7.17-5.47c4.35-0.01,7.48,3.07,7.57,7.45
		c0.01,0.69-0.13,1.1-1,1.07C308.08,437,306.31,437.05,304.55,437.05z M303.46,435.12c1.4,0,2.8-0.03,4.2,0.01
		c0.69,0.02,0.78-0.2,0.63-0.83c-0.54-2.27-2.66-3.97-4.98-3.92c-2.32,0.05-4.27,1.72-4.76,4c-0.13,0.61-0.01,0.76,0.59,0.75
		C300.58,435.1,302.02,435.12,303.46,435.12z"/>
	<path class="st0" d="M147.99,437.05c-1.76,0-3.53,0.03-5.29-0.02c-0.71-0.02-0.82,0.25-0.67,0.84c0.51,1.98,1.67,3.43,3.67,3.91
		c1.96,0.47,3.73-0.04,5.06-1.69c0.38-0.47,2.05-0.49,2.29,0.01c0.21,0.44-0.18,0.75-0.41,1.06c-2.21,3-7.18,3.59-10.39,1.24
		c-3.39-2.48-4.02-7.83-1.32-11.17c2.7-3.33,7.81-3.72,10.93-0.81c1.68,1.57,2.35,3.57,2.39,5.83c0.01,0.66-0.25,0.81-0.85,0.8
		C151.59,437.03,149.79,437.05,147.99,437.05z M151.73,435.12c0.15-0.5-0.04-0.88-0.17-1.25c-0.71-2.13-2.65-3.53-4.82-3.49
		c-2.18,0.04-4.15,1.54-4.68,3.65c-0.1,0.39-0.58,1.09,0.44,1.09C145.59,435.12,148.67,435.12,151.73,435.12z"/>
	<path class="st0" d="M340.24,437.05c-1.76,0-3.53,0.03-5.29-0.01c-0.67-0.02-0.86,0.19-0.7,0.83c0.49,1.99,1.66,3.43,3.65,3.92
		c1.96,0.48,3.74-0.01,5.05-1.69c0.36-0.46,1.95-0.49,2.3-0.02c0.21,0.29-0.01,0.53-0.15,0.76c-0.47,0.77-1.11,1.38-1.88,1.83
		c-2.76,1.6-5.59,1.75-8.3,0.03c-2.89-1.83-3.84-4.65-3.31-7.92c0.48-3.03,2.28-5.09,5.24-5.97c4.89-1.45,9.52,2.04,9.63,7.16
		c0.02,0.81-0.18,1.14-1.06,1.11C343.69,437,341.96,437.05,340.24,437.05z M334.14,435.12c3.12,0,6.24-0.01,9.35,0.01
		c0.71,0,0.5-0.38,0.42-0.77c-0.48-2.33-2.67-4.06-5.03-3.97C336.3,430.48,334.43,432.32,334.14,435.12z"/>
	<path class="st0" d="M226.43,443.82c-4.32,0-7.47-3.25-7.46-7.68c0.01-4.34,3.19-7.59,7.43-7.59c4.32,0,7.52,3.23,7.52,7.62
		C233.92,440.58,230.75,443.82,226.43,443.82z M231.34,436.13c-0.03-3.36-2.7-5.9-5.64-5.37c-2.31,0.42-4.03,2.6-4.13,5.23
		c-0.09,2.61,1.48,4.95,3.73,5.54C228.39,442.35,231.36,439.69,231.34,436.13z"/>
	<path class="st0" d="M459.88,443.82c-4.2-0.02-7.28-3.29-7.27-7.72c0.01-4.39,3.19-7.57,7.56-7.55c4.19,0.02,7.4,3.34,7.38,7.66
		C467.54,440.6,464.28,443.83,459.88,443.82z M464.91,436.18c0-2.89-1.75-5.08-4.38-5.47c-2.14-0.32-4.37,1.27-5.1,3.7
		c-0.66,2.21-0.23,4.21,1.37,5.89c1.27,1.32,3.26,1.72,4.87,1.05C463.68,440.53,464.91,438.56,464.91,436.18z"/>
	<path class="st0" d="M387.5,436.22c-0.01,4.44-3.15,7.61-7.54,7.6c-4.21-0.01-7.41-3.33-7.4-7.67c0.01-4.36,3.27-7.62,7.6-7.6
		C384.41,428.56,387.5,431.79,387.5,436.22z M375.16,436.23c0.01,2.82,2,5.22,4.47,5.4c2.73,0.19,4.88-1.75,5.31-4.78
		c0.39-2.72-1.47-5.55-3.97-6.07C377.94,430.16,375.15,432.78,375.16,436.23z"/>
	<path class="st0" d="M422.97,428.55c4.23,0,7.45,3.28,7.47,7.59c0.02,4.38-3.21,7.68-7.51,7.68c-4.34,0-7.45-3.23-7.43-7.71
		C415.52,431.74,418.68,428.54,422.97,428.55z M427.85,436.17c0-2.96-2.29-5.54-4.91-5.53c-2.62,0.01-4.9,2.59-4.93,5.55
		c-0.02,2.99,2.21,5.47,4.93,5.47C425.65,441.66,427.84,439.2,427.85,436.17z"/>
	<path class="st0" d="M264.52,441.37c-1.75,1.73-3.61,2.55-5.88,2.46c-2.43-0.1-4.42-1.7-4.76-3.94c-0.32-2.12,0.98-3.99,3.32-4.8
		c1.87-0.65,3.51-0.61,6.85,0.14c0.72-3.24-1.4-5.43-4.65-4.82c-1.16,0.21-2.22,0.66-3.2,1.31c-0.34,0.22-0.68,0.38-0.82-0.13
		c-0.12-0.44-0.89-0.86-0.27-1.34c2.76-2.12,7.95-2.45,10.13-0.09c1.25,1.35,1.5,2.96,1.56,4.66c0.05,1.52-0.02,3.05,0.02,4.57
		c0.02,0.74-0.27,1.52,0.64,2.14c0.41,0.27,0.23,1.24,0.06,1.83c-0.13,0.45-0.75,0.36-1.16,0.32c-0.69-0.07-1.37-0.26-1.62-1.03
		C264.63,442.32,264.62,441.96,264.52,441.37z M264.12,438.01c-0.11-0.23,0.5-1.01-0.37-1.28c-1.82-0.58-3.67-0.86-5.53-0.16
		c-1.33,0.5-2.04,1.53-1.93,2.72c0.11,1.28,1.13,2.35,2.48,2.57c1.45,0.24,2.79-0.09,4.01-0.89
		C263.74,440.33,264.45,439.56,264.12,438.01z"/>
	<path class="st0" d="M167.04,441.32c-1.73,1.76-3.59,2.6-5.86,2.51c-2.46-0.09-4.49-1.7-4.78-3.91c-0.3-2.25,0.96-4.05,3.39-4.85
		c1.9-0.62,3.28-0.59,6.85,0.17c0.47-3.58-1.67-5.54-5.15-4.74c-1.03,0.24-1.96,0.67-2.84,1.24c-0.28,0.18-0.62,0.39-0.74-0.1
		c-0.12-0.47-0.95-0.93-0.27-1.43c2.64-1.95,7.05-2.34,9.4-0.64c1.44,1.04,2.11,2.5,2.16,4.23c0.05,2.04,0.02,4.09,0.02,6.13
		c0,0.48-0.05,0.99,0.41,1.32c0.82,0.58,0.44,1.41,0.33,2.07c-0.08,0.47-0.78,0.39-1.25,0.32c-0.75-0.11-1.41-0.36-1.54-1.25
		C167.15,442.13,167.12,441.86,167.04,441.32z M166.68,438.01c-0.12-0.24,0.46-0.97-0.3-1.23c-2.01-0.68-4.05-1-6.05-0.03
		c-0.96,0.47-1.55,1.24-1.51,2.38c0.04,1.16,0.59,2,1.64,2.44c1.78,0.74,3.45,0.34,4.98-0.71
		C166.33,440.25,166.97,439.45,166.68,438.01z"/>
	<path class="st0" d="M204.74,433.5c0-3.01,0.02-6.02-0.02-9.03c-0.01-0.79,0.13-1.13,1.03-1.11c3.77,0.05,7.54,0.07,11.31-0.01
		c1.13-0.02,0.93,0.61,0.98,1.29c0.06,0.77-0.09,1.13-1.01,1.11c-2.93-0.06-5.85,0-8.78-0.04c-0.77-0.01-1.06,0.17-1.03,0.99
		c0.06,1.6,0.05,3.21,0,4.81c-0.02,0.75,0.26,0.95,0.98,0.94c2.41-0.04,4.81,0.03,7.22-0.04c0.9-0.03,0.95,0.39,0.93,1.07
		c-0.02,0.64,0.04,1.14-0.91,1.11c-2.36-0.07-4.73,0.02-7.1-0.05c-0.94-0.03-1.15,0.28-1.12,1.16c0.06,2.08,0,4.17,0.03,6.26
		c0.01,0.96,0.12,1.69-1.36,1.66c-1.43-0.03-1.16-0.81-1.16-1.6C204.74,439.2,204.74,436.35,204.74,433.5z"/>
	<path class="st0" d="M369.85,434.64c0,2.65-0.02,5.29,0.02,7.94c0.01,0.75-0.15,1.05-0.98,1.02c-2.08-0.08-1.67,0.18-1.68-1.62
		c-0.02-5.05-0.03-10.1,0.01-15.15c0.01-0.9-0.22-1.16-1.12-1.12c-1.68,0.08-3.37-0.02-5.05,0.04c-0.81,0.03-0.86-0.42-0.77-0.97
		c0.09-0.53-0.44-1.4,0.72-1.4c5.01,0.01,10.02,0.01,15.02,0c1.16,0,0.64,0.86,0.73,1.39c0.09,0.55,0.05,1-0.76,0.98
		c-1.72-0.06-3.45,0.02-5.17-0.03c-0.78-0.03-1.02,0.19-1,0.99C369.88,429.35,369.85,431.99,369.85,434.64z"/>
	<path class="st0" d="M189.13,443.82c-2.56,0.04-4.45-0.49-6.22-1.54c-0.69-0.41-0.7-0.77-0.25-1.39c0.39-0.53,0.59-0.93,1.36-0.4
		c1.69,1.18,3.57,1.78,5.67,1.4c0.35-0.06,0.71-0.15,1.03-0.3c0.87-0.4,1.38-1.04,1.37-2.06c-0.02-0.97-0.64-1.45-1.42-1.72
		c-1.09-0.38-2.22-0.66-3.33-0.98c-0.61-0.18-1.24-0.32-1.84-0.54c-2.92-1.03-3.55-4.27-1.26-6.38c2.1-1.93,7.52-1.8,9.54,0.21
		c0.54,0.53,0.01,0.77-0.2,1.09c-0.24,0.38-0.46,0.87-1.1,0.4c-1.23-0.91-2.64-1.31-4.17-1.27c-0.66,0.01-1.27,0.18-1.85,0.46
		c-0.79,0.39-1.17,1.04-1.18,1.93c-0.01,0.91,0.49,1.43,1.28,1.68c1.37,0.43,2.77,0.78,4.15,1.18c0.57,0.17,1.16,0.34,1.69,0.59
		c2.53,1.2,2.91,4.55,0.74,6.34C192.01,443.44,190.71,443.82,189.13,443.82z"/>
	<path class="st0" d="M172.58,435.97c0-1.4-0.03-2.81,0.01-4.21c0.02-0.73-0.11-1.16-0.96-1.03c-0.72,0.11-1.09-0.08-1.06-0.94
		c0.03-0.75,0.18-1.14,1-1c0.91,0.16,1.07-0.32,1.03-1.1c-0.05-1.04,0.01-2.08-0.02-3.12c-0.02-0.57,0.18-0.74,0.76-0.76
		c1.85-0.08,1.84-0.1,1.84,1.69c0,0.76,0.06,1.53-0.02,2.28c-0.09,0.89,0.29,1.14,1.09,1.03c0.35-0.05,0.72,0.01,1.08-0.01
		c0.71-0.05,1.19-0.01,1.19,0.97c0,0.95-0.43,1-1.16,1c-2.18-0.02-2.18,0.01-2.19,2.17c0,2.08,0,4.17,0,6.25
		c0,2.01,0.91,2.67,2.82,2.08c0.46-0.14,1.03-0.72,1.25,0.29c0.16,0.71,0.65,1.46-0.59,1.74c-0.82,0.19-1.61,0.48-2.46,0.51
		c-2.18,0.06-3.42-0.97-3.57-3.13c-0.1-1.56-0.02-3.12-0.02-4.69C172.6,435.97,172.59,435.97,172.58,435.97z"/>
	<path class="st0" d="M313.51,436.2c0-1.52-0.03-3.05,0.01-4.57c0.02-0.66-0.16-0.99-0.87-0.89c-0.76,0.11-1.16-0.08-1.15-1
		c0.01-0.87,0.37-1.03,1.08-0.94c0.75,0.1,0.98-0.24,0.94-0.96c-0.05-0.88-0.04-1.77,0-2.65c0.02-0.45-0.28-1.14,0.24-1.3
		c0.62-0.19,1.35-0.1,2.03-0.02c0.34,0.04,0.23,0.46,0.23,0.73c0.01,1.12,0.03,2.25,0,3.37c-0.02,0.62,0.21,0.89,0.84,0.84
		c0.44-0.03,0.88,0.01,1.32-0.01c0.67-0.03,1.2-0.1,1.21,0.93c0.01,1.06-0.51,1.03-1.25,1.03c-2.11-0.02-2.11,0-2.11,2.17
		c0,2.05,0,4.09,0,6.14c0,2.13,0.95,2.82,2.96,2.17c0.43-0.14,0.96-0.64,1.13,0.32c0.12,0.66,0.68,1.35-0.46,1.69
		c-1.27,0.38-2.52,0.8-3.87,0.4c-1.53-0.45-2.21-1.27-2.25-2.85C313.49,439.25,313.52,437.72,313.51,436.2
		C313.52,436.2,313.52,436.2,313.51,436.2z"/>
	<path class="st0" d="M326.37,426.26c0,0.04,0,0.08,0,0.12c0,2.34,0,2.37,2.38,2.39c0.72,0,0.98,0.17,0.97,0.94
		c-0.02,0.73-0.14,1.05-0.98,1.05c-2.36-0.01-2.36,0.04-2.36,2.38c0,2,0,4.01,0,6.01c0.01,2.03,0.98,2.7,2.94,2.07
		c0.42-0.14,0.96-0.67,1.14,0.31c0.12,0.66,0.67,1.36-0.46,1.7c-0.81,0.24-1.6,0.51-2.45,0.55c-2.4,0.11-3.67-1.09-3.68-3.5
		c-0.01-2.81-0.04-5.61,0.02-8.42c0.02-0.87-0.17-1.3-1.11-1.14c-0.82,0.14-0.88-0.34-0.9-1c-0.02-0.72,0.19-1.07,0.94-0.95
		c0.86,0.14,1.12-0.25,1.06-1.08c-0.06-0.96,0.07-1.93-0.04-2.88c-0.12-1.06,0.46-1.06,1.21-1.02c0.7,0.03,1.53-0.21,1.33,1.02
		C326.31,425.29,326.37,425.78,326.37,426.26z"/>
	<path class="st0" d="M435.58,431.77c0.69-0.76,1.2-1.37,1.76-1.93c0.6-0.61,1.36-1,2.2-1.15c0.49-0.09,1.23-0.31,1.44,0.13
		c0.25,0.52,0.13,1.25,0.06,1.88c-0.05,0.41-0.5,0.29-0.79,0.34c-1.09,0.17-2.09,0.53-2.94,1.25c-0.99,0.84-1.58,1.81-1.53,3.21
		c0.09,2.4-0.03,4.81,0.05,7.21c0.03,0.97-0.49,0.96-1.1,0.86c-0.57-0.1-1.53,0.53-1.52-0.82c0.03-4.36,0.04-8.73-0.01-13.09
		c-0.01-1.1,0.69-0.84,1.28-0.86c0.59-0.02,1.26-0.15,1.13,0.86C435.52,430.27,435.58,430.91,435.58,431.77z"/>
	<path class="st0" d="M351.51,431.81c0.49-0.6,0.79-1,1.12-1.38c0.69-0.8,1.51-1.42,2.56-1.69c0.54-0.14,1.25-0.36,1.59,0.03
		c0.4,0.46,0.18,1.22,0.11,1.85c-0.05,0.5-0.54,0.36-0.87,0.42c-1.46,0.26-2.73,0.87-3.65,2.09c-0.5,0.66-0.75,1.37-0.74,2.22
		c0.04,2.44-0.04,4.89,0.04,7.32c0.04,1.2-0.73,0.87-1.34,0.89c-0.62,0.02-1.23,0.18-1.22-0.89c0.06-4.32,0.06-8.65,0-12.97
		c-0.01-1.03,0.54-0.95,1.2-0.93c0.63,0.02,1.35-0.16,1.22,0.92C351.45,430.31,351.51,430.94,351.51,431.81z"/>
	<path class="st0" d="M239.13,431.85c0.46-0.6,0.7-0.95,0.97-1.27c0.76-0.92,1.68-1.61,2.86-1.87c0.5-0.11,1.19-0.33,1.47,0.09
		c0.34,0.51,0.17,1.24,0.08,1.87c-0.06,0.43-0.49,0.32-0.79,0.37c-1.3,0.2-2.46,0.7-3.38,1.67c-0.74,0.78-1.17,1.66-1.14,2.8
		c0.05,2.4-0.03,4.81,0.04,7.21c0.03,1.11-0.67,0.85-1.25,0.85c-0.59,0-1.27,0.26-1.25-0.85c0.05-4.37,0.05-8.74,0-13.11
		c-0.01-0.89,0.47-0.89,1.05-0.81c0.54,0.07,1.4-0.39,1.35,0.77C239.1,430.22,239.13,430.88,239.13,431.85z"/>
	<path class="st0" d="M446.17,432c1.11-1.58,2.09-2.84,3.78-3.25c0.55-0.13,1.25-0.35,1.59,0.02c0.42,0.46,0.15,1.22,0.13,1.85
		c-0.01,0.45-0.44,0.38-0.74,0.42c-1.06,0.12-2.03,0.49-2.86,1.14c-1.09,0.84-1.77,1.87-1.72,3.37c0.08,2.36-0.05,4.73,0.05,7.09
		c0.05,1.15-0.62,0.94-1.28,0.96c-0.7,0.02-1.28,0.1-1.26-0.99c0.07-4.29,0.06-8.57,0.01-12.86c-0.01-1.01,0.51-0.93,1.19-0.96
		c0.77-0.04,1.22,0.1,1.12,1.02C446.11,430.41,446.17,431.05,446.17,432z"/>
	<path class="st0" d="M153.14,372.53c3.77,0,7.53,0,11.3,0c5.21,0,8.71,2.61,9.88,7.67c1.05,4.5,0.36,8.62-3.48,11.72
		c-1.68,1.35-3.64,2.02-5.78,2.03c-8.25,0.02-16.51,0-24.76,0.03c-0.76,0-1.01-0.17-1-0.98c0.03-6.49,0.04-12.99,0-19.48
		c-0.01-0.92,0.34-1.01,1.11-1C144.65,372.54,148.89,372.53,153.14,372.53z"/>
	<path class="st0" d="M151.6,334.25c3.41,0,6.81,0,10.22,0c5.24,0,8.85,3.34,9.25,8.58c0.09,1.24,0.13,2.49-0.08,3.72
		c-0.8,4.9-4.21,7.95-9.28,8.02c-7.17,0.1-14.35,0.02-21.53,0.04c-0.67,0-0.89-0.17-0.89-0.87c0.03-6.22,0.03-12.43-0.01-18.65
		c-0.01-0.85,0.37-0.86,1-0.86C144.06,334.26,147.83,334.25,151.6,334.25z"/>
	<path class="st0" d="M366.24,393.95c-4.13,0-8.25-0.02-12.38,0.02c-0.83,0.01-1.17-0.11-1.16-1.08c0.05-6.45,0.05-12.91,0-19.36
		c-0.01-0.89,0.29-1.03,1.09-1.03c8.05,0.03,16.11,0.02,24.16,0.02c5.1,0,8.51,2.66,9.8,7.64c1.34,5.17-0.46,10.1-4.56,12.48
		c-1.52,0.88-3.17,1.31-4.93,1.31C374.26,393.95,370.25,393.95,366.24,393.95z"/>
	<path class="st0" d="M288.8,469.96c0-3.93,0.03-7.86-0.02-11.78c-0.01-0.92,0.25-1.15,1.15-1.13c2.2,0.06,4.41,0.02,6.61,0.02
		c5.49,0.02,9.56,3.1,11.07,8.37c0.92,3.21,0.84,6.42-0.14,9.59c-1.53,4.89-5.54,7.8-10.72,7.87c-2.28,0.03-4.57-0.05-6.85,0.03
		c-0.97,0.03-1.11-0.34-1.1-1.18C288.82,477.82,288.8,473.89,288.8,469.96z"/>
	<path class="st0" d="M448.89,470.24c-0.12,3.69-1.36,7.01-4.03,9.68c-4.66,4.64-11.98,4.15-16.07-1.03
		c-4.13-5.23-4.08-12.72,0.12-17.9c4.52-5.57,12.67-5.37,17.13,0.45C448,464,448.89,466.95,448.89,470.24z"/>
	<path class="st0" d="M176.66,470c-0.03,3.23-0.99,6.14-2.95,8.71c-4.44,5.84-12.78,5.86-17.27,0.05
		c-3.83-4.95-3.93-12.06-0.24-17.15c4.69-6.48,13.82-6.16,18.2,0.66C175.92,464.61,176.67,467.2,176.66,470z"/>
	<path class="st0" d="M344.43,473.37c-4.24,0-8.31,0-12.57,0c2.11-5.09,4.2-10.11,6.37-15.33
		C340.33,463.23,342.34,468.21,344.43,473.37z"/>
	<path class="st1" d="M127.58,434.43c0.96,0,1.92-0.01,2.88,0c1.98,0.03,3.3,1.32,3.38,3.29c0.07,1.9-1.23,3.52-3.09,3.6
		c-2.16,0.09-4.32,0.02-6.48,0.03c-0.45,0-0.65-0.16-0.65-0.62c0.01-1.88,0.02-3.76,0-5.64c-0.01-0.54,0.23-0.68,0.73-0.67
		C125.42,434.45,126.5,434.43,127.58,434.43z"/>
	<path class="st1" d="M127.42,425.68c0.84,0,1.68-0.01,2.52,0c1.75,0.03,2.94,1.12,3.11,2.84c0.18,1.83-0.8,3.43-2.46,3.72
		c-2.13,0.37-4.3,0.09-6.46,0.15c-0.54,0.02-0.52-0.38-0.52-0.75c0-1.76,0.01-3.52-0.01-5.28c-0.01-0.52,0.18-0.71,0.7-0.7
		C125.35,425.7,126.39,425.68,127.42,425.68z"/>
	<path class="st1" d="M303.46,435.12c-1.44,0-2.88-0.02-4.32,0.01c-0.6,0.01-0.72-0.14-0.59-0.75c0.49-2.28,2.44-3.95,4.76-4
		c2.32-0.05,4.44,1.65,4.98,3.92c0.15,0.64,0.07,0.85-0.63,0.83C306.26,435.09,304.86,435.12,303.46,435.12z"/>
	<path class="st1" d="M151.73,435.12c-3.06,0-6.14,0-9.22,0c-1.02,0-0.54-0.7-0.44-1.09c0.54-2.11,2.5-3.61,4.68-3.65
		c2.17-0.04,4.11,1.36,4.82,3.49C151.68,434.24,151.88,434.62,151.73,435.12z"/>
	<path class="st1" d="M334.14,435.12c0.29-2.8,2.16-4.64,4.75-4.74c2.36-0.09,4.55,1.64,5.03,3.97c0.08,0.39,0.29,0.78-0.42,0.77
		C340.38,435.11,337.26,435.12,334.14,435.12z"/>
	<path class="st1" d="M231.34,436.13c0.03,3.56-2.94,6.22-6.04,5.4c-2.25-0.59-3.83-2.93-3.73-5.54c0.09-2.63,1.82-4.81,4.13-5.23
		C228.64,430.22,231.31,432.77,231.34,436.13z"/>
	<path class="st1" d="M464.91,436.18c0,2.38-1.23,4.35-3.23,5.17c-1.61,0.66-3.61,0.27-4.87-1.05c-1.6-1.68-2.03-3.68-1.37-5.89
		c0.73-2.43,2.96-4.01,5.1-3.7C463.16,431.11,464.91,433.29,464.91,436.18z"/>
	<path class="st1" d="M375.16,436.23c-0.01-3.45,2.78-6.07,5.81-5.45c2.5,0.51,4.36,3.35,3.97,6.07c-0.43,3.03-2.59,4.97-5.31,4.78
		C377.15,441.45,375.16,439.05,375.16,436.23z"/>
	<path class="st1" d="M427.85,436.17c0,3.04-2.2,5.5-4.9,5.5c-2.72,0-4.96-2.48-4.93-5.47c0.02-2.96,2.31-5.54,4.93-5.55
		C425.56,430.63,427.85,433.21,427.85,436.17z"/>
	<path class="st1" d="M264.12,438.01c0.33,1.55-0.39,2.32-1.34,2.95c-1.22,0.8-2.56,1.13-4.01,0.89c-1.36-0.22-2.37-1.29-2.48-2.57
		c-0.11-1.2,0.6-2.22,1.93-2.72c1.86-0.7,3.71-0.42,5.53,0.16C264.63,437,264.01,437.78,264.12,438.01z"/>
	<path class="st1" d="M166.68,438.01c0.29,1.44-0.35,2.24-1.25,2.85c-1.53,1.05-3.2,1.45-4.98,0.71c-1.04-0.44-1.6-1.28-1.64-2.44
		c-0.04-1.14,0.55-1.91,1.51-2.38c2.01-0.97,4.05-0.65,6.05,0.03C167.14,437.04,166.56,437.77,166.68,438.01z"/>
</g>
</svg>
