<svg xmlns="http://www.w3.org/2000/svg" viewBox="0 0 378.55 114.76"><defs><style>.cls-1{fill:#3a4650;}.cls-2{fill:#fdfdfe;}.cls-3{fill:#672f91;}</style></defs><g id="Layer_2" data-name="Layer 2"><g id="Layer_1-2" data-name="Layer 1"><path class="cls-1" d="M63.38,56.29a28,28,0,0,1,8.28,4.06c6,4.42,9,10.45,9.66,17.78.35,4.27.2,8.5-1.52,12.52C77.09,97,72.15,101,65.92,103.55a45.24,45.24,0,0,1-17.36,3.24c-15.71,0-31.43,0-47.15,0-1,0-1.41-.2-1.41-1.36q.06-48,0-96C0,8.43.27,8.2,1.26,8.2c17.4,0,34.8.1,52.2,0,10.32-.06,17.3,4.94,21.38,14s3.31,18-2.2,26.42a21.07,21.07,0,0,1-7.89,6.89ZM36.67,66c-4.24,0-8.49,0-12.74,0-.77,0-1.11.08-1.1,1q.06,9.74,0,19.48c0,.81.24,1,1,1,8.25,0,16.5,0,24.76,0a9,9,0,0,0,5.78-2c3.84-3.09,4.53-7.22,3.48-11.72C56.68,68.61,53.18,66,48,66ZM35.13,27.73H23.83c-.63,0-1,0-1,.85,0,6.22,0,12.43,0,18.65,0,.7.22.87.88.87,7.18,0,14.35.06,21.53,0a9,9,0,0,0,9.27-8,15.44,15.44,0,0,0,.08-3.72c-.4-5.24-4-8.58-9.24-8.58Z"/><path class="cls-1" d="M236.65,8.22h9c7.26,0,14.52.07,21.78,0,7.62-.09,13.54,3.12,18,9.11a27.12,27.12,0,0,1-.27,32.48A22,22,0,0,1,278,55.65l-1.18.61a29.2,29.2,0,0,1,7.66,3.63c6.76,4.69,9.92,11.3,10.39,19.38.36,6.13-.78,11.8-4.79,16.66-3.53,4.3-8.16,6.89-13.34,8.59a47.3,47.3,0,0,1-14.79,2.28c-15.68,0-31.36,0-47,0-1.06,0-1.42-.22-1.41-1.37.06-7.42,0-14.85,0-22.27a2.46,2.46,0,0,1,.87-2c3.95-3.88,7.34-8.27,11-12.42a96.3,96.3,0,0,0,12.07-16.3,32.22,32.22,0,0,0,1.71-3.3,1.65,1.65,0,0,1,1.8-1.16c5.69.05,11.39,0,17.08,0a11.09,11.09,0,0,0,3.79-.55c3.41-1.23,5.57-3.53,6.08-7.2s.29-7.15-2.42-10a8.1,8.1,0,0,0-6.13-2.59q-7.17,0-14.32,0c-.46,0-1,.23-1.05-.67A31.71,31.71,0,0,0,236.65,8.22Zm13.13,79.21h12a9.67,9.67,0,0,0,4.92-1.31c4.1-2.37,5.9-7.31,4.56-12.48-1.29-5-4.69-7.63-9.79-7.63-8.06,0-16.11,0-24.16,0-.8,0-1.1.13-1.09,1q.06,9.69,0,19.36c0,1,.33,1.09,1.16,1.08C241.52,87.41,245.65,87.43,249.78,87.43Z"/><path class="cls-1" d="M141.83,67.93h-1.45c-9.82,0-19.65,0-29.47,0-1,0-1.26.22-1.25,1.23,0,12.12,0,24.23,0,36.35,0,1-.22,1.35-1.31,1.34q-10.23-.08-20.45,0c-.93,0-1.11-.27-1.11-1.14q0-48.19,0-96.4c0-.95.3-1.08,1.14-1.08q32.31,0,64.6,0c1,0,1.22.31,1.16,1.21-.08,1.12.3,2.43-.16,3.31s-1.91.73-2.91,1.1a25.11,25.11,0,0,0-14.39,13.39,1.58,1.58,0,0,1-1.7,1.06c-7.9,0-15.8,0-23.7,0-.89,0-1.23.16-1.22,1.16q.07,9.51,0,19c0,.87.25,1.06,1.08,1.05,7.34,0,14.67,0,22,0,.86,0,1.23.21,1.44,1.11C135.67,56.69,138.6,62.25,141.83,67.93Z"/><path class="cls-1" d="M337.14,8.22c13.4,0,26.79,0,40.18,0,1,0,1.23.27,1.23,1.25q-.07,8.85,0,17.69c0,.89-.2,1.13-1.11,1.13-9.1,0-18.2,0-27.31,0-1.72,0-1.56-.29-1.56,1.63q0,37.73,0,75.46c0,1.24-.34,1.5-1.53,1.49q-9.93-.09-19.85,0c-1.13,0-1.46-.22-1.46-1.42q.06-37.84.06-75.7c0-1.24-.32-1.5-1.51-1.49-9.15.05-18.29,0-27.43.05-.93,0-1.2-.22-1.19-1.18,0-5.86.05-11.71,0-17.57,0-1,.19-1.33,1.28-1.32C310.36,8.24,323.75,8.22,337.14,8.22Z"/><path class="cls-2" d="M36.67,66H48c5.21,0,8.71,2.6,9.89,7.66,1,4.5.36,8.63-3.48,11.72a9,9,0,0,1-5.78,2c-8.26,0-16.51,0-24.76,0-.77,0-1-.17-1-1q.06-9.73,0-19.48c0-.92.33-1,1.1-1C28.18,66,32.43,66,36.67,66Z"/><path class="cls-2" d="M35.13,27.73H45.36c5.24,0,8.84,3.34,9.24,8.58A15.44,15.44,0,0,1,54.52,40a9,9,0,0,1-9.27,8c-7.18.1-14.35,0-21.53,0-.66,0-.89-.17-.88-.87,0-6.22,0-12.43,0-18.65,0-.85.37-.86,1-.85Z"/><path class="cls-2" d="M249.78,87.43c-4.13,0-8.26,0-12.38,0-.83,0-1.17-.11-1.16-1.08q.07-9.68,0-19.36c0-.89.29-1,1.09-1,8,0,16.1,0,24.16,0,5.1,0,8.5,2.65,9.79,7.63,1.34,5.17-.46,10.11-4.56,12.48a9.67,9.67,0,0,1-4.92,1.31Z"/><path class="cls-3" d="M190.63,10a1.54,1.54,0,0,1,.62-1.62c4-3.28,8.1-6.49,13.29-7.68,13.52-3.08,32.25,3.24,36,22.06,1.51,7.7.21,15.15-2.69,22.36-2.72,6.77-6.89,12.64-11.58,18.15-4.55,5.34-9,10.78-13.86,15.83a19.75,19.75,0,0,1-4.09,3.29c.4-1.33.79-2.38,1-3.45,2.22-9.55-.72-17.47-8-23.67-6.6-5.57-14.2-7.36-22.56-4.5-3.06,1-5.87,2.59-7.75,5.39-.2.31-.5.65-.88.43s0-.58,0-.85c1.54-5.23,3.41-10.34,5.34-15.43a1.92,1.92,0,0,1,1.05-1.06A138.13,138.13,0,0,0,192,30.63c4.33-3,8.35-6.26,11-10.94a13.49,13.49,0,0,0,1.83-5.55,5.14,5.14,0,0,0-4.4-5.89A13,13,0,0,0,192,9.37C191.55,9.56,191.13,9.79,190.63,10Z"/><path class="cls-3" d="M146,67.9a4.34,4.34,0,0,1-1.95-2c-3.26-5.62-6.32-11.37-7.46-17.85-1.66-9.49-.22-18.35,6.37-25.76s18.46-9.31,26.6-4.49c4.6,2.72,6.33,6.87,5,12.07-.53,2.14-1.44,4.16-2.15,6.24a9.21,9.21,0,0,0-.76,2.64c0,1.66-1,2.27-2.34,2.86a63.54,63.54,0,0,0-13.52,7.72A25.21,25.21,0,0,0,146,67.9Z"/><path class="cls-1" d="M168.08,66.11A16.52,16.52,0,0,0,173.47,76a12,12,0,0,0,10.87,2.77,6.86,6.86,0,0,0,5.28-5.6c.57-4.66-3.14-7.71-7.74-6.34a5.64,5.64,0,0,0-4.31,6.34c.08,1-.28.85-.92.59a7.93,7.93,0,0,1-5-5.31,13,13,0,0,1,3.16-13.25c2.81-2.91,6.55-3.45,10.44-3.23,11.13.66,17.74,9.39,18.13,19.82.47,12.34-7.26,22.6-19.16,25.15a24.16,24.16,0,0,1-11.55-.47c-3.75-1-5.3-3.13-5.65-7.41a97.74,97.74,0,0,1,.6-19.79A15.13,15.13,0,0,1,168.08,66.11Z"/><path class="cls-1" d="M170.44,42.69c-.66,2.77-1.3,5.32-1.87,7.89a137.86,137.86,0,0,0-3.46,35.88c.06,1.36.12,2.72.28,4.07.12,1-.26.9-.91.6a10.73,10.73,0,0,1-4.27-3.77,30,30,0,0,1-5.47-16.52c-.25-6.36.66-12.45,4.18-17.94A29.81,29.81,0,0,1,169.66,43,8,8,0,0,1,170.44,42.69Z"/><path class="cls-3" d="M191.72,97.38a26.52,26.52,0,0,1-4.52,4.14c-5.1,3.75-10.09,7.66-15.7,10.65a18.26,18.26,0,0,1-10.83,2.49,12.05,12.05,0,0,1-10.44-10.25A6.62,6.62,0,0,1,157.76,97a8.83,8.83,0,0,1,5.65,3.12A6.28,6.28,0,0,1,161,110c-.51.18-1.45.24-1.37.86s.94.91,1.6,1.12c2.67.81,6.3-1.16,7.39-4a12,12,0,0,0,.16-6.4,36.3,36.3,0,0,1-.61-4.65c0-.71.23-.93.94-.64C176.48,99.27,184,99.22,191.72,97.38Z"/><path class="cls-1" d="M176.48,37.64a84.12,84.12,0,0,1,5.37-12,30.13,30.13,0,0,1,5.5-7.52,10.87,10.87,0,0,1,6.7-3.41c.2,0,.4,0,.59,0,2.64.12,3.19.74,2.94,3.33a11.44,11.44,0,0,1-3,6.79,52.12,52.12,0,0,1-16.25,12.3c-.4.19-.81.34-1.22.5A3.86,3.86,0,0,1,176.48,37.64Z"/></g></g></svg>