<svg xmlns="http://www.w3.org/2000/svg" viewBox="0 0 105.18 114.76"><defs><style>.cls-1{fill:#672f91;}.cls-2{fill:#3a4650;}</style></defs><g id="Layer_2" data-name="Layer 2"><g id="Layer_1-2" data-name="Layer 1"><path class="cls-1" d="M54.67,10a1.54,1.54,0,0,1,.62-1.62c4-3.28,8.1-6.49,13.29-7.68C82.1-2.34,100.83,4,104.54,22.8c1.52,7.7.21,15.15-2.68,22.36C99.13,51.93,95,57.8,90.27,63.31c-4.55,5.34-9,10.78-13.86,15.83a19.75,19.75,0,0,1-4.09,3.29c.4-1.33.79-2.38,1-3.45,2.22-9.55-.72-17.47-8-23.67-6.59-5.57-14.2-7.36-22.56-4.5-3.06,1-5.87,2.59-7.75,5.39-.2.31-.5.65-.88.43s0-.58.06-.85c1.54-5.23,3.4-10.34,5.33-15.43a1.92,1.92,0,0,1,1.05-1.06,138.13,138.13,0,0,0,15.5-8.66c4.33-3,8.35-6.26,11-10.94a13.35,13.35,0,0,0,1.83-5.55,5.14,5.14,0,0,0-4.4-5.89A13,13,0,0,0,56,9.37C55.59,9.56,55.17,9.79,54.67,10Z"/><path class="cls-1" d="M10,67.9a4.34,4.34,0,0,1-1.95-2C4.83,60.32,1.77,54.57.63,48.09-1,38.6.41,29.74,7,22.33S25.46,13,33.6,17.84c4.6,2.72,6.33,6.87,5,12.07-.53,2.14-1.43,4.16-2.15,6.24a9.21,9.21,0,0,0-.76,2.64c0,1.66-1,2.27-2.34,2.86a63.79,63.79,0,0,0-13.52,7.72A25.21,25.21,0,0,0,10,67.9Z"/><path class="cls-2" d="M32.12,66.11A16.52,16.52,0,0,0,37.51,76a12,12,0,0,0,10.87,2.77,6.86,6.86,0,0,0,5.28-5.6c.58-4.66-3.14-7.71-7.74-6.34a5.65,5.65,0,0,0-4.31,6.34c.08,1-.28.85-.92.59a8,8,0,0,1-5-5.31,13,13,0,0,1,3.16-13.25c2.81-2.91,6.56-3.45,10.44-3.23C60.4,52.61,67,61.34,67.4,71.77c.47,12.34-7.26,22.6-19.16,25.15a24.16,24.16,0,0,1-11.55-.47c-3.75-1-5.3-3.13-5.65-7.41a97.74,97.74,0,0,1,.6-19.79A15.13,15.13,0,0,1,32.12,66.11Z"/><path class="cls-2" d="M34.48,42.69c-.66,2.77-1.3,5.32-1.87,7.89a138.29,138.29,0,0,0-3.46,35.88c.06,1.36.12,2.72.28,4.07.12,1-.26.9-.91.6a10.8,10.8,0,0,1-4.27-3.77,30,30,0,0,1-5.47-16.52c-.25-6.36.66-12.45,4.18-17.94A29.84,29.84,0,0,1,33.71,43,6.68,6.68,0,0,1,34.48,42.69Z"/><path class="cls-1" d="M55.76,97.38a26.52,26.52,0,0,1-4.52,4.14c-5.1,3.75-10.09,7.66-15.7,10.65a18.23,18.23,0,0,1-10.82,2.49,12.05,12.05,0,0,1-10.45-10.25A6.62,6.62,0,0,1,21.8,97a8.8,8.8,0,0,1,5.65,3.12A6.28,6.28,0,0,1,25.08,110c-.51.18-1.45.24-1.37.86s.94.91,1.6,1.12c2.67.81,6.3-1.16,7.39-4,.81-2.11.52-4.26.16-6.4a36.3,36.3,0,0,1-.61-4.65c0-.71.23-.93.94-.64C40.52,99.27,48,99.22,55.76,97.38Z"/><path class="cls-2" d="M40.52,37.64a84.12,84.12,0,0,1,5.37-12,30.38,30.38,0,0,1,5.5-7.52,10.87,10.87,0,0,1,6.7-3.41c.2,0,.4,0,.59,0,2.64.12,3.19.74,2.94,3.33a11.38,11.38,0,0,1-3,6.79,52.12,52.12,0,0,1-16.25,12.3c-.4.19-.81.34-1.22.5A3.86,3.86,0,0,1,40.52,37.64Z"/></g></g></svg>