<svg xmlns="http://www.w3.org/2000/svg" viewBox="0 0 378.68 178.07"><defs><style>.cls-1{fill:#fff;}.cls-2{fill:#672f91;}.cls-3{fill:#3a4650;}.cls-4{fill:#fdfdfe;}</style></defs><g id="Layer_2" data-name="Layer 2"><g id="Layer_1-2" data-name="Layer 1"><path class="cls-1" d="M167.76,116c1.69,0,3.37,0,5.05,0,3.32.09,5.76,4,5.88,9.35.1,4.82-2.38,9.49-5.48,9.7-3.79.25-7.58,0-11.37.11-1,0-1.2-.59-1.19-2q.06-7.65,0-15.3c0-1.43.29-2,1.21-1.92C163.83,116,165.79,116,167.76,116Z"/><path class="cls-2" d="M161.29,116.66c0-1.26,10-1.4,12.71-.25a2.89,2.89,0,0,1,1.52,2.17c1,2.76.19,5-2.2,6.74l.59.31a5.24,5.24,0,0,1-1.07,9.76,7.62,7.62,0,0,1-2,.26c-2.81,0-5.61,0-8.42,0-1,0-1.11-.31-1.11-1.16,0-5.7,0-11.4,0-17.09Zm1.49-.27c-.2-.33-2.55-.32-2.55-.32a14.38,14.38,0,0,1-9-4.66,1.92,1.92,0,0,0-1.57-.64q-74.22,0-148.45,0C.26,110.76,0,111,0,112c0,9.15,0,18.29,0,27.44,0,1.8-.3,1.64,1.68,1.64H377c1.54,0,1.54,0,1.54-1.56,0-9.14,0-18.29,0-27.44,0-1.09-.31-1.31-1.34-1.3-9.5,0-19,0-28.51,0H178.58a4.51,4.51,0,0,0-2.57.74,44.19,44.19,0,0,1-7.08,3.54,40.78,40.78,0,0,1-4.73.94Zm-148,19.21c-3.16.13-6.33,0-9.49.06-.59,0-.74-.2-.74-.76q0-9.32,0-18.63c0-.62.17-.83.81-.83,3,0,6.09,0,9.13,0a4.41,4.41,0,0,1,4.27,3.11,5.21,5.21,0,0,1-.93,5.61,12.24,12.24,0,0,1-1.29,1.15A5,5,0,0,1,20,129.7,5.18,5.18,0,0,1,14.82,135.6ZM37,129.13c-1.81,0-3.61,0-5.42,0s-3.52,0-5.29,0c-.7,0-.82.25-.67.84a4.93,4.93,0,0,0,3.67,3.91,4.7,4.7,0,0,0,5.06-1.69c.38-.47,2-.49,2.29,0s-.18.75-.41,1.06c-2.21,3-7.18,3.59-10.39,1.24a8,8,0,0,1-1.32-11.17,7.57,7.57,0,0,1,10.93-.81,7.79,7.79,0,0,1,2.4,5.84C37.83,129,37.57,129.14,37,129.13Zm16.57,6.27c-.08.47-.78.39-1.25.32-.75-.11-1.41-.36-1.53-1.25,0-.27-.08-.54-.15-1.08a7.42,7.42,0,0,1-5.86,2.51A4.78,4.78,0,0,1,40,132c-.3-2.25,1-4,3.4-4.85,1.9-.62,3.28-.59,6.85.18.47-3.58-1.67-5.55-5.15-4.75a9.13,9.13,0,0,0-2.84,1.24c-.29.19-.62.39-.74-.09s-1-.93-.27-1.43c2.64-2,7.05-2.34,9.4-.64a5.11,5.11,0,0,1,2.16,4.23c0,2,0,4.09,0,6.13,0,.48,0,1,.41,1.32C54,133.9,53.65,134.74,53.54,135.4Zm8.68-.05a13,13,0,0,1-2.46.51c-2.18.06-3.42-1-3.56-3.13-.11-1.56,0-3.13,0-4.69h0c0-1.4,0-2.8,0-4.21,0-.72-.11-1.16-1-1s-1.09-.08-1.06-.94.18-1.14,1-1,1.06-.33,1-1.11c0-1,0-2.08,0-3.12,0-.57.18-.74.76-.77,1.84-.07,1.84-.1,1.84,1.69,0,.76.06,1.53,0,2.28s.28,1.14,1.09,1c.35-.05.72,0,1.08,0,.71,0,1.19,0,1.19,1s-.43,1-1.16,1c-2.19,0-2.19,0-2.19,2.17v6.25c0,2,.91,2.67,2.82,2.08.46-.14,1-.72,1.25.29C63,134.32,63.45,135.07,62.22,135.35Zm14.48-.76a6,6,0,0,1-4,1.3,11.08,11.08,0,0,1-6.22-1.55c-.69-.41-.7-.77-.25-1.39s.59-.93,1.35-.4a7.35,7.35,0,0,0,5.67,1.4,4.5,4.5,0,0,0,1-.29,2.08,2.08,0,0,0,1.37-2.06,1.8,1.8,0,0,0-1.42-1.72c-1.09-.38-2.22-.66-3.34-1-.61-.18-1.24-.32-1.84-.54A3.64,3.64,0,0,1,67.79,122c2.11-1.94,7.52-1.8,9.54.2.54.53,0,.78-.19,1.09s-.46.87-1.1.4a6.61,6.61,0,0,0-4.17-1.28,4.37,4.37,0,0,0-1.85.47,2,2,0,0,0-1.18,1.93,1.63,1.63,0,0,0,1.28,1.68c1.37.42,2.76.77,4.14,1.18a12.19,12.19,0,0,1,1.7.59A3.76,3.76,0,0,1,76.7,134.59Zm23.91-16.76c-2.92-.07-5.85,0-8.78,0-.77,0-1.06.17-1,1,.06,1.6,0,3.21,0,4.81,0,.75.25,1,1,.94,2.41,0,4.82,0,7.22,0,.9,0,1,.39.93,1.08s0,1.14-.91,1.11c-2.36-.07-4.73,0-7.09-.05-.94,0-1.15.29-1.13,1.17.06,2.08,0,4.17,0,6.25,0,1,.12,1.7-1.36,1.67s-1.15-.81-1.16-1.6v-8.55c0-3,0-6,0-9,0-.79.13-1.13,1-1.12,3.77,0,7.54.07,11.31,0,1.12,0,.93.61,1,1.28S101.53,117.85,100.61,117.83ZM110,135.89a7.64,7.64,0,1,1,7.49-7.65A7.33,7.33,0,0,1,110,135.89Zm18.07-13.15c-.06.43-.49.32-.78.37a5.68,5.68,0,0,0-3.38,1.67,3.79,3.79,0,0,0-1.15,2.8c.06,2.4,0,4.81,0,7.21,0,1.11-.66.85-1.25.85s-1.27.26-1.25-.85c0-4.37,0-8.74,0-13.11,0-.89.47-.88,1-.81s1.4-.39,1.35.77c0,.65,0,1.31,0,2.28.45-.6.7-1,1-1.27a5.07,5.07,0,0,1,2.86-1.87c.5-.11,1.18-.33,1.47.09A2.83,2.83,0,0,1,128.07,122.74Zm23,12.69c-.14.44-.75.36-1.16.32a1.68,1.68,0,0,1-1.62-1,8.89,8.89,0,0,1-.21-1.28,7.55,7.55,0,0,1-5.88,2.46,4.79,4.79,0,0,1-4.75-3.94c-.32-2.12,1-4,3.31-4.8,1.88-.64,3.52-.61,6.85.14.72-3.23-1.4-5.42-4.65-4.82a8.47,8.47,0,0,0-3.2,1.31c-.34.22-.68.38-.82-.13s-.9-.87-.28-1.34c2.76-2.12,8-2.46,10.14-.09a6.67,6.67,0,0,1,1.55,4.66c0,1.52,0,3,0,4.56,0,.74-.27,1.53.64,2.14C151.43,133.87,151.26,134.84,151.08,135.43Zm42.33-6.29c-1.76-.07-3.53,0-5.29,0s-3.53,0-5.29,0c-.61,0-.75.18-.66.76a5.22,5.22,0,0,0,3.6,4,5,5,0,0,0,5.09-1.64c.39-.51,2.06-.55,2.37,0,.11.19,0,.38-.09.56a6.08,6.08,0,0,1-1.15,1.38,7.64,7.64,0,0,1-12.32-8,7.51,7.51,0,0,1,14.74,2C194.42,128.77,194.28,129.18,193.41,129.14Zm9.82,6.16a6.62,6.62,0,0,1-3.88.4,2.71,2.71,0,0,1-2.25-2.86c0-1.52,0-3,0-4.57h0c0-1.52,0-3.05,0-4.57,0-.66-.17-1-.87-.9s-1.16-.08-1.15-1,.37-1,1.08-.94,1-.24.94-1a21.3,21.3,0,0,1,0-2.65c0-.45-.28-1.14.23-1.3a5.13,5.13,0,0,1,2,0c.34,0,.23.46.23.73,0,1.12,0,2.24,0,3.37,0,.62.2.88.83.83.44,0,.88,0,1.32,0,.67,0,1.21-.1,1.22.93s-.51,1-1.26,1c-2.11,0-2.11,0-2.11,2.17s0,4.09,0,6.14.94,2.82,3,2.17c.43-.14,1-.65,1.13.32C203.81,134.27,204.37,135,203.23,135.3Zm10.33,0a10.36,10.36,0,0,1-2.45.56c-2.4.11-3.67-1.09-3.68-3.5,0-2.81,0-5.61,0-8.42,0-.87-.17-1.3-1.11-1.14s-.88-.34-.9-1,.19-1.06.94-.94,1.12-.25,1.07-1.08.06-1.93,0-2.88.46-1.06,1.21-1,1.53-.2,1.33,1a9.88,9.88,0,0,0,0,1.44v.12c0,2.35,0,2.37,2.38,2.39.72,0,1,.17,1,.94s-.14,1-1,1c-2.37,0-2.37,0-2.37,2.38v6c0,2,1,2.7,2.94,2.07.43-.13,1-.66,1.15.31C214.15,134.27,214.7,135,213.56,135.3ZM229,129.14c-1.72-.07-3.45,0-5.17,0s-3.53,0-5.29,0c-.67,0-.86.19-.7.82a4.89,4.89,0,0,0,3.65,3.92,4.63,4.63,0,0,0,5.05-1.69,2.05,2.05,0,0,1,2.29,0c.22.29,0,.52-.15.75a5.31,5.31,0,0,1-1.88,1.83,7.54,7.54,0,0,1-8.3,0c-2.89-1.83-3.83-4.65-3.31-7.92a7,7,0,0,1,5.24-6A7.42,7.42,0,0,1,230,128C230.05,128.84,229.86,129.17,229,129.14Zm11.48-6.44c-.05.5-.54.36-.87.42a5.56,5.56,0,0,0-3.65,2.09,3.37,3.37,0,0,0-.74,2.22c0,2.44,0,4.88,0,7.32,0,1.2-.73.87-1.34.89s-1.23.19-1.22-.89q.09-6.48,0-13c0-1,.54-.94,1.2-.92s1.35-.16,1.22.91a20.9,20.9,0,0,0,0,2.12c.49-.61.79-1,1.12-1.38a4.89,4.89,0,0,1,2.56-1.69c.54-.14,1.25-.37,1.59,0S240.53,122.07,240.46,122.7Zm12.94-3.92c0,2.64,0,5.29,0,7.93s0,5.29,0,7.94c0,.75-.15,1-1,1-2.08-.09-1.67.18-1.68-1.62,0-5.05,0-10.1,0-15.15,0-.9-.22-1.16-1.12-1.12-1.68.08-3.37,0-5.05,0-.81,0-.86-.42-.76-1s-.44-1.4.72-1.4h15c1.16,0,.64.87.72,1.39s.06,1-.76,1c-1.72-.06-3.44,0-5.16,0C253.63,117.76,253.39,118,253.4,118.78Zm10.13,17.11a7.64,7.64,0,0,1,.19-15.27c4.26,0,7.35,3.24,7.35,7.67A7.29,7.29,0,0,1,263.53,135.89Zm31.56-.25c-.62,0-1.48.39-1.44-.91.07-2.49,0-5,0-7.46,0-.24,0-.49,0-.73-.09-1.49-.35-2.92-2-3.55a3.86,3.86,0,0,0-4.17,1.46,4.71,4.71,0,0,0-1.22,3.29c.06,2.25-.05,4.5,0,6.74.05,1.12-.43,1.21-1.33,1.19s-1.29-.07-1.26-1.14c.07-2.6.05-5.21,0-7.81s-1-3.87-2.94-3.86a4.62,4.62,0,0,0-4.32,4.22c-.05,2.53-.07,5.06,0,7.58.05,1.24-.71,1-1.39,1s-1.27.13-1.25-1c.07-4.29.06-8.58,0-12.88,0-1,.51-1,1.19-.94s1.34-.11,1.2.94a14.82,14.82,0,0,0,0,1.78c3.12-4.09,8.62-4,10,.25.37-.46.7-.88,1.06-1.29a5.84,5.84,0,0,1,5.91-1.78,3.51,3.51,0,0,1,2.59,2.6,9.74,9.74,0,0,1,.5,3.08c0,2.76,0,5.53,0,8.3C296.31,135.77,295.75,135.7,295.09,135.64Zm11.41.25c-4.34,0-7.45-3.23-7.43-7.71a7.3,7.3,0,0,1,7.46-7.56,7.64,7.64,0,0,1,0,15.27Zm18.1-13.12c0,.41-.5.29-.79.33a6,6,0,0,0-2.94,1.25,3.79,3.79,0,0,0-1.54,3.21c.09,2.4,0,4.81.05,7.21,0,1-.49,1-1.1.86s-1.53.53-1.52-.82c0-4.36,0-8.73,0-13.09,0-1.1.69-.84,1.28-.86s1.25-.15,1.13.86a18.37,18.37,0,0,0,0,2.12c.69-.76,1.2-1.37,1.76-1.93a4,4,0,0,1,2.2-1.15c.49-.09,1.23-.31,1.43.13A3.7,3.7,0,0,1,324.6,122.77Zm10.64-.09c0,.46-.43.39-.73.42a5.65,5.65,0,0,0-2.87,1.14,3.84,3.84,0,0,0-1.71,3.36c.08,2.37-.05,4.73.05,7.09,0,1.15-.62.95-1.28,1s-1.28.11-1.26-1c.07-4.28.06-8.57,0-12.86,0-1,.52-.93,1.19-1s1.23.1,1.12,1c-.07.62,0,1.27,0,2.21,1.11-1.58,2.09-2.84,3.78-3.25.54-.14,1.25-.36,1.59,0S335.26,122.06,335.24,122.68Zm8.2,13.21c-4.2,0-7.28-3.29-7.26-7.72a7.3,7.3,0,0,1,7.56-7.55,7.64,7.64,0,0,1-.3,15.27Zm30.2-14.28c-1.9,4.5-3.82,9-5.7,13.49-.31.74-.89.51-1.41.55s-1,0-1.23-.63c-.82-2.11-1.72-4.2-2.69-6.54-1,2.38-1.84,4.44-2.64,6.53a.88.88,0,0,1-1.1.63c-.54-.07-1.19.29-1.53-.54-2-4.68-4-9.35-5.95-14,2-.55,2.25-.41,3,1.35,1.43,3.47,2.87,6.94,4.42,10.67.85-2.11,1.65-4,2.38-5.94.09-.24-.11-.61-.23-.9-.57-1.41-1.18-2.8-1.73-4.22-.13-.35-.67-1-.14-1.08s1.55-.58,2,.48c.5,1.26,1,2.53,1.59,4.06.56-1.46,1-2.72,1.52-4a1.73,1.73,0,0,1,2-.61c.37.28.07.58,0,.85-.59,1.48-1.17,3-1.81,4.44a1.83,1.83,0,0,0,0,1.6c.71,1.67,1.37,3.36,2.15,5.28,1.2-2.91,2.31-5.6,3.41-8.29.42-1,.82-2,1.23-3a2,2,0,0,1,2.46-.9C374,121.11,373.73,121.38,373.64,121.61Z"/><path class="cls-3" d="M63.52,56.29a28,28,0,0,1,8.28,4.06c6,4.42,9,10.45,9.65,17.78.36,4.27.2,8.5-1.51,12.52C77.23,97,72.28,101,66.06,103.55a45.31,45.31,0,0,1-17.36,3.24c-15.72,0-31.43,0-47.15,0-1,0-1.42-.2-1.41-1.36q0-48,0-96c0-1,.27-1.24,1.25-1.24,17.41,0,34.81.1,52.21,0,10.32-.06,17.29,4.94,21.37,14s3.32,18-2.2,26.42a21,21,0,0,1-7.89,6.89C64.46,55.76,64.05,56,63.52,56.29ZM36.81,66c-4.25,0-8.5,0-12.74,0-.77,0-1.11.08-1.11,1,.05,6.49,0,13,0,19.48,0,.81.24,1,1,1,8.25,0,16.51,0,24.76,0a9,9,0,0,0,5.78-2C58.36,82.3,59,78.17,58,73.67,56.82,68.61,53.31,66,48.11,66ZM35.27,27.73H24c-.64,0-1,0-1,.85Q23,37.9,23,47.22c0,.7.22.87.89.87,7.17,0,14.35.06,21.52,0a9,9,0,0,0,9.28-8,16,16,0,0,0,.08-3.72c-.4-5.24-4-8.58-9.25-8.58Z"/><path class="cls-3" d="M236.79,8.22h9c7.26,0,14.51.07,21.77,0,7.62-.09,13.54,3.12,18,9.11a27.09,27.09,0,0,1-.27,32.48,22.08,22.08,0,0,1-7.24,5.85l-1.18.61a29.36,29.36,0,0,1,7.66,3.63c6.75,4.69,9.92,11.3,10.39,19.38.36,6.13-.79,11.8-4.79,16.66-3.53,4.3-8.16,6.89-13.35,8.59A47.24,47.24,0,0,1,262,106.8c-15.68,0-31.36,0-47,0-1.07,0-1.42-.22-1.41-1.37,0-7.42,0-14.85,0-22.27a2.49,2.49,0,0,1,.86-2c4-3.88,7.35-8.27,11-12.42a95.82,95.82,0,0,0,12.08-16.3,34.35,34.35,0,0,0,1.71-3.3A1.63,1.63,0,0,1,241,48.05c5.7.05,11.39,0,17.09,0a11.07,11.07,0,0,0,3.78-.55c3.41-1.23,5.58-3.53,6.09-7.2s.29-7.15-2.42-10a8.13,8.13,0,0,0-6.14-2.59q-7.16,0-14.31,0c-.47,0-1,.23-1.06-.67A31.63,31.63,0,0,0,236.79,8.22Zm13.12,79.21h12a9.68,9.68,0,0,0,4.93-1.31c4.1-2.37,5.9-7.31,4.56-12.48-1.29-5-4.7-7.63-9.8-7.63-8.05,0-16.1,0-24.16,0-.8,0-1.09.13-1.08,1q.06,9.69,0,19.36c0,1,.33,1.09,1.16,1.08C241.66,87.41,245.78,87.43,249.91,87.43Z"/><path class="cls-3" d="M142,67.93h-1.45c-9.83,0-19.65,0-29.48,0-1,0-1.25.22-1.25,1.23,0,12.12,0,24.23,0,36.35,0,1-.21,1.35-1.3,1.34q-10.23-.08-20.45,0c-.93,0-1.11-.27-1.11-1.14q0-48.19,0-96.4c0-.95.3-1.08,1.15-1.08q32.3,0,64.6,0c1,0,1.22.31,1.15,1.21-.08,1.12.31,2.43-.15,3.31s-1.92.73-2.92,1.1a25.14,25.14,0,0,0-14.39,13.39,1.57,1.57,0,0,1-1.69,1.06c-7.9,0-15.8,0-23.7,0-.9,0-1.23.16-1.23,1.16q.08,9.51,0,19c0,.87.25,1.06,1.07,1.05,7.34,0,14.68,0,22,0,.86,0,1.22.21,1.44,1.11C135.81,56.69,138.74,62.25,142,67.93Z"/><path class="cls-3" d="M337.28,8.22c13.39,0,26.78,0,40.18,0,1,0,1.23.27,1.22,1.25-.05,5.9,0,11.8,0,17.69,0,.89-.2,1.13-1.11,1.13-9.11,0-18.21,0-27.31,0-1.73,0-1.57-.29-1.57,1.63q0,37.73,0,75.46c0,1.24-.34,1.5-1.53,1.49q-9.92-.09-19.85,0c-1.12,0-1.45-.22-1.45-1.42q.06-37.84.06-75.7c0-1.24-.32-1.5-1.52-1.49-9.14.05-18.28,0-27.43.05-.93,0-1.2-.22-1.19-1.18q.07-8.79,0-17.57c0-1,.2-1.33,1.29-1.32C310.49,8.24,323.88,8.22,337.28,8.22Z"/><path class="cls-3" d="M147.41,172.27v-3.48c0-7,0-14,0-21.06,0-1,.16-1.53,1.29-1.32a3.43,3.43,0,0,0,1,0c.76-.11.93.23.93,1q0,14.74,0,29.48c0,.71-.16.94-.92,1a3.08,3.08,0,0,1-2.92-1.34c-6.11-7.75-12.29-15.43-18.44-23.14l-.75-.86a2,2,0,0,0-.17,1.31c0,7.58,0,15.17,0,22.75,0,.94-.14,1.33-1.21,1.28-1.94-.09-1.94,0-1.94-2,0-9.31,0-18.61,0-27.92,0-.51-.44-1.4.39-1.52s1.86-.4,2.63.6c2.32,3,4.71,6,7.08,9l12.12,15.25C146.7,171.47,146.93,171.73,147.41,172.27Z"/><path class="cls-3" d="M355.46,152.25v9c0,5.14,0,10.27,0,15.41,0,.83-.11,1.19-1.08,1.16-2.06-.07-2.06,0-2.06-2.08,0-9.31,0-18.62,0-27.93,0-.48-.42-1.32.35-1.42s1.84-.4,2.62.6c3,3.87,6.06,7.68,9.11,11.51q5.26,6.65,10.55,13.28l.49.55v-1.52c0-7.74,0-15.49,0-23.23,0-1,.26-1.22,1.2-1.19,1.91.06,1.91,0,1.91,1.87q0,14,0,28.05c0,.48.35,1.36-.34,1.41-.9.07-2,.53-2.78-.48-2.86-3.61-5.75-7.2-8.63-10.81C363.08,161.8,359.38,157.16,355.46,152.25Z"/><path class="cls-3" d="M169.24,162c0-4.85,0-9.71,0-14.56,0-.84.12-1.2,1.09-1.18,3.64.09,7.29,0,10.93.14,7.3.35,12.41,5.12,13.46,12.34a20.46,20.46,0,0,1-.59,9c-1.92,6.22-7,9.86-13.87,10-3.32.05-6.65,0-10,0-.88,0-1-.28-1-1.09C169.25,171.82,169.24,166.93,169.24,162Zm3.13,0c0,3.93,0,7.86,0,11.79,0,.84.13,1.21,1.1,1.18,2.28-.07,4.56,0,6.85,0A10.87,10.87,0,0,0,191,167.1a16.37,16.37,0,0,0,.14-9.58,11,11,0,0,0-11.06-8.38c-2.2,0-4.41.05-6.61,0-.89,0-1.16.21-1.15,1.13C172.4,154.18,172.37,158.1,172.37,162Z"/><path class="cls-3" d="M321,146.15c5.59.13,9.59,2.9,12.35,7.61a16.67,16.67,0,0,1-3.08,20.56,13.89,13.89,0,0,1-20.37-1.56c-6.71-8.06-4.18-20.76,5.05-25.29A12.48,12.48,0,0,1,321,146.15Zm11.44,16.16a14,14,0,0,0-2.86-8.8,10.73,10.73,0,0,0-17.13-.45,14.4,14.4,0,0,0-.12,17.91,10.64,10.64,0,0,0,16.07,1A13.85,13.85,0,0,0,332.46,162.31Z"/><path class="cls-3" d="M63.38,162.22c-.18,5.63-2.35,10.26-7.08,13.46-6.19,4.2-14.22,2.73-18.94-3.34A16.81,16.81,0,0,1,40,149.23c7-5.67,17-3.39,21.4,4.9A16.16,16.16,0,0,1,63.38,162.22Zm-3.15-.15A13.9,13.9,0,0,0,58,154.34c-4.39-6.82-13.52-7.14-18.21-.66A14.46,14.46,0,0,0,40,170.83a10.72,10.72,0,0,0,17.27-.05A14.26,14.26,0,0,0,60.23,162.07Z"/><path class="cls-3" d="M79.64,155.79c0-2.81,0-5.62,0-8.43,0-.72.11-1.06,1-1.06,2.18,0,2.18,0,2.18,2.13,0,4.73,0,9.46,0,14.2a17.92,17.92,0,0,0,1.08,6.49c1.54,4,4.64,6,9.15,6a8.9,8.9,0,0,0,8.87-6.09,19.69,19.69,0,0,0,1.1-6.84q.06-7.35,0-14.69c0-.9.18-1.25,1.17-1.22,2,.07,2,0,2,2,0,4.86,0,9.71,0,14.57a21.31,21.31,0,0,1-1,6.62c-1.62,4.79-4.83,7.81-9.93,8.42-5.44.65-10.05-.53-13.18-5.64a17,17,0,0,1-2.24-8.38c-.1-2.69,0-5.38,0-8.06Z"/><path class="cls-3" d="M236.15,177.68a2.35,2.35,0,0,1-.38.1c-2.9.14-2.9.14-4-2.54-.87-2.1-1.78-4.2-2.61-6.32a1.19,1.19,0,0,0-1.29-.93q-6.13.06-12.27,0a1.13,1.13,0,0,0-1.23.85c-1,2.53-2.1,5-3.05,7.57a1.78,1.78,0,0,1-2.06,1.41c-1.89-.11-1.9,0-1.18-1.74,4-9.53,8-19.05,11.91-28.59a1.71,1.71,0,0,1,1.85-1.21,1.57,1.57,0,0,1,1.73,1.19q6,14.6,12.15,29.14C235.84,176.94,236,177.27,236.15,177.68ZM228,165.44l-6.2-15.33c-2.17,5.22-4.25,10.24-6.37,15.33Z"/><path class="cls-3" d="M0,162c0-4.85,0-9.7,0-14.55,0-.93.27-1.12,1.14-1.11,6.13,0,12.26.05,18.39,0,1.28,0,1.09.7,1.08,1.44s.26,1.47-1.06,1.45c-5.08-.09-10.17,0-15.26-.06-1,0-1.22.23-1.2,1.19.06,3.09.05,6.17,0,9.26,0,.84.23,1.08,1.08,1.07,4.2,0,8.41,0,12.62,0,1.09,0,1.15.45,1.09,1.27s.26,1.47-1.06,1.44c-4.2-.09-8.41,0-12.62-.06-.93,0-1.12.27-1.11,1.14.05,4.09,0,8.18,0,12.27,0,.85-.14,1.2-1.09,1.17-2-.06-2,0-2-2Z"/><path class="cls-3" d="M256.35,163.48c0-4.41,0-8.82,0-13.23,0-.91-.23-1.15-1.13-1.13-3,.06-6,0-9,0-.79,0-1-.21-1-1,0-1.84,0-1.84,1.59-1.84,7.58,0,15.16,0,22.73,0,1.37,0,1.19.66,1.23,1.52s-.07,1.41-1.25,1.37c-2.92-.11-5.85,0-8.77-.06-1,0-1.21.27-1.2,1.21,0,8.7,0,17.4,0,26.11,0,1.09-.26,1.54-1.37,1.36a3.43,3.43,0,0,0-1,0c-.77.1-.93-.25-.93-1C256.36,172.39,256.35,167.94,256.35,163.48Z"/><path class="cls-3" d="M286.35,162c0-4.85,0-9.71,0-14.56,0-.86.25-1.06,1.07-1.05,2,0,2,0,2,2.05,0,9.34,0,18.68,0,28,0,1.14-.35,1.5-1.41,1.34a2.17,2.17,0,0,0-.72,0c-.82.13-1-.25-1-1,0-4.69,0-9.38,0-14.07Z"/><path class="cls-2" d="M168,126.5c1,0,1.93,0,2.89,0a3.37,3.37,0,0,1,3.36,3.39,3.43,3.43,0,0,1-3.13,3.5c-2.17.1-4.33,0-6.5,0-.54,0-.68-.21-.67-.71,0-1.84,0-3.69,0-5.53,0-.52.17-.71.7-.7C165.71,126.52,166.83,126.5,168,126.5Z"/><path class="cls-2" d="M167.68,117.75c.85,0,1.69,0,2.53,0a2.94,2.94,0,0,1,3.12,2.82,3.18,3.18,0,0,1-2.55,3.76,48,48,0,0,1-6.35.14c-.54,0-.53-.35-.53-.73,0-1.76,0-3.52,0-5.29,0-.62.27-.72.79-.71C165.68,117.77,166.68,117.75,167.68,117.75Z"/><path class="cls-4" d="M16.58,125.34A5,5,0,0,1,20,129.7a5.18,5.18,0,0,1-5.18,5.9c-3.16.13-6.33,0-9.49.06-.59,0-.74-.2-.74-.76q0-9.32,0-18.63c0-.62.17-.83.81-.83,3,0,6.09,0,9.13,0a4.41,4.41,0,0,1,4.27,3.11,5.21,5.21,0,0,1-.93,5.61A12.24,12.24,0,0,1,16.58,125.34Zm-5.43,1.16c-1.08,0-2.16,0-3.24,0-.5,0-.73.14-.73.68,0,1.88,0,3.76,0,5.64,0,.46.19.62.65.62,2.16,0,4.32.06,6.47,0a3.33,3.33,0,0,0,3.1-3.6A3.24,3.24,0,0,0,14,126.5C13.07,126.49,12.11,126.5,11.15,126.5ZM11,117.75c-1,0-2.07,0-3.11,0-.52,0-.7.18-.7.7,0,1.76,0,3.52,0,5.27,0,.37,0,.77.52.75a43.53,43.53,0,0,0,6.46-.15,3.23,3.23,0,0,0,2.45-3.72,3,3,0,0,0-3.11-2.84C12.67,117.74,11.83,117.75,11,117.75Z"/><path class="cls-4" d="M276.23,123.57c3.12-4.09,8.62-4,10,.25.37-.46.7-.88,1.06-1.29a5.84,5.84,0,0,1,5.91-1.78,3.51,3.51,0,0,1,2.59,2.6,9.74,9.74,0,0,1,.5,3.08c0,2.76,0,5.53,0,8.3,0,1-.53,1-1.19.91s-1.48.39-1.44-.91c.07-2.49,0-5,0-7.46,0-.24,0-.49,0-.73-.09-1.49-.35-2.92-2-3.55a3.86,3.86,0,0,0-4.17,1.46,4.71,4.71,0,0,0-1.22,3.29c.06,2.25-.05,4.5,0,6.74.05,1.12-.43,1.21-1.33,1.19s-1.29-.07-1.26-1.14c.07-2.6.05-5.21,0-7.81s-1-3.87-2.94-3.86a4.62,4.62,0,0,0-4.32,4.22c-.05,2.53-.07,5.06,0,7.58.05,1.24-.71,1-1.39,1s-1.27.13-1.25-1c.07-4.29.06-8.58,0-12.88,0-1,.51-1,1.19-.94s1.34-.11,1.2.94A14.82,14.82,0,0,0,276.23,123.57Z"/><path class="cls-4" d="M362.61,128.48c-1,2.38-1.84,4.44-2.64,6.53a.88.88,0,0,1-1.1.63c-.54-.07-1.19.29-1.53-.54-2-4.68-4-9.35-5.95-14,2-.55,2.25-.41,3,1.35,1.43,3.47,2.87,6.94,4.42,10.67.85-2.11,1.65-4,2.38-5.94.09-.24-.11-.61-.23-.9-.57-1.41-1.18-2.8-1.73-4.22-.13-.35-.67-1-.14-1.08s1.55-.58,2,.48c.5,1.26,1,2.53,1.59,4.06.56-1.46,1-2.72,1.52-4a1.73,1.73,0,0,1,2-.61c.37.28.07.58,0,.85-.59,1.48-1.17,3-1.81,4.44a1.83,1.83,0,0,0,0,1.6c.71,1.67,1.37,3.36,2.15,5.28,1.2-2.91,2.31-5.6,3.41-8.29.42-1,.82-2,1.23-3a2,2,0,0,1,2.46-.9c.38.21.16.48.07.71-1.9,4.5-3.82,9-5.7,13.49-.31.74-.89.51-1.41.55s-1,0-1.23-.63C364.48,132.91,363.58,130.82,362.61,128.48Z"/><path class="cls-4" d="M188.12,129.12c-1.77,0-3.53,0-5.29,0-.61,0-.75.18-.66.76a5.22,5.22,0,0,0,3.6,4,5,5,0,0,0,5.09-1.64c.39-.51,2.06-.55,2.37,0,.11.19,0,.38-.09.56a6.08,6.08,0,0,1-1.15,1.38,7.64,7.64,0,0,1-12.32-8,7.51,7.51,0,0,1,14.74,2c0,.7-.13,1.11-1,1.07C191.65,129.07,189.88,129.12,188.12,129.12ZM187,127.19c1.4,0,2.8,0,4.2,0,.69,0,.77-.2.62-.84a5.13,5.13,0,0,0-5-3.92,5,5,0,0,0-4.76,4c-.14.61,0,.76.59.75C184.15,127.17,185.59,127.19,187,127.19Z"/><path class="cls-4" d="M31.55,129.12c-1.76,0-3.52,0-5.29,0-.7,0-.82.25-.67.84a4.93,4.93,0,0,0,3.67,3.91,4.7,4.7,0,0,0,5.06-1.69c.38-.47,2-.49,2.29,0s-.18.75-.41,1.06c-2.21,3-7.18,3.59-10.39,1.24a8,8,0,0,1-1.32-11.17,7.57,7.57,0,0,1,10.93-.81,7.79,7.79,0,0,1,2.4,5.84c0,.66-.25.81-.85.8C35.16,129.1,33.36,129.12,31.55,129.12Zm3.75-1.93a1.91,1.91,0,0,0-.17-1.25,5,5,0,0,0-4.82-3.49,5,5,0,0,0-4.68,3.66c-.1.38-.58,1.08.44,1.08Z"/><path class="cls-4" d="M223.81,129.12c-1.77,0-3.53,0-5.29,0-.67,0-.86.19-.7.82a4.89,4.89,0,0,0,3.65,3.92,4.63,4.63,0,0,0,5.05-1.69,2.05,2.05,0,0,1,2.29,0c.22.29,0,.52-.15.75a5.31,5.31,0,0,1-1.88,1.83,7.54,7.54,0,0,1-8.3,0c-2.89-1.83-3.83-4.65-3.31-7.92a7,7,0,0,1,5.24-6A7.42,7.42,0,0,1,230,128c0,.81-.18,1.14-1.06,1.11C227.26,129.07,225.53,129.12,223.81,129.12Zm-6.1-1.93c3.12,0,6.23,0,9.35,0,.71,0,.5-.38.42-.77a5,5,0,0,0-5-4A4.88,4.88,0,0,0,217.71,127.19Z"/><path class="cls-4" d="M110,135.89a7.64,7.64,0,1,1,7.49-7.65A7.33,7.33,0,0,1,110,135.89Zm4.9-7.69c0-3.36-2.69-5.9-5.64-5.37a5.34,5.34,0,0,0-4.13,5.23,5.41,5.41,0,0,0,3.74,5.54C112,134.42,114.93,131.76,114.9,128.2Z"/><path class="cls-4" d="M343.44,135.89c-4.2,0-7.28-3.29-7.26-7.72a7.3,7.3,0,0,1,7.56-7.55,7.64,7.64,0,0,1-.3,15.27Zm5-7.64a5.21,5.21,0,0,0-4.38-5.47,4.9,4.9,0,0,0-5.1,3.7,5.69,5.69,0,0,0,1.37,5.89,4.49,4.49,0,0,0,4.88,1A5.38,5.38,0,0,0,348.48,128.25Z"/><path class="cls-4" d="M271.07,128.29a7.29,7.29,0,0,1-7.54,7.6,7.64,7.64,0,0,1,.19-15.27C268,120.63,271.07,123.86,271.07,128.29Zm-12.35,0c0,2.82,2,5.23,4.47,5.4,2.73.19,4.88-1.75,5.31-4.78a5.5,5.5,0,0,0-4-6.07C261.51,122.23,258.72,124.85,258.72,128.3Z"/><path class="cls-4" d="M306.53,120.62a7.64,7.64,0,0,1,0,15.27c-4.34,0-7.45-3.23-7.43-7.71A7.3,7.3,0,0,1,306.53,120.62Zm4.89,7.62c0-3-2.29-5.54-4.91-5.53s-4.91,2.59-4.93,5.55a5.24,5.24,0,0,0,4.94,5.47C309.22,133.74,311.41,131.27,311.42,128.24Z"/><path class="cls-4" d="M148.09,133.44a7.55,7.55,0,0,1-5.88,2.46,4.79,4.79,0,0,1-4.75-3.94c-.32-2.12,1-4,3.31-4.8,1.88-.64,3.52-.61,6.85.14.72-3.23-1.4-5.42-4.65-4.82a8.47,8.47,0,0,0-3.2,1.31c-.34.22-.68.38-.82-.13s-.9-.87-.28-1.34c2.76-2.12,8-2.46,10.14-.09a6.67,6.67,0,0,1,1.55,4.66c0,1.52,0,3,0,4.56,0,.74-.27,1.53.64,2.14.41.28.24,1.25.06,1.84-.14.44-.75.36-1.16.32-.69-.08-1.37-.27-1.62-1A8.89,8.89,0,0,1,148.09,133.44Zm-.4-3.36c-.11-.23.51-1-.36-1.28a8.21,8.21,0,0,0-5.53-.16,2.66,2.66,0,0,0-1.94,2.72,2.93,2.93,0,0,0,2.48,2.57,5.44,5.44,0,0,0,4-.9A2.53,2.53,0,0,0,147.69,130.08Z"/><path class="cls-4" d="M50.61,133.39a7.42,7.42,0,0,1-5.86,2.51A4.78,4.78,0,0,1,40,132c-.3-2.25,1-4,3.4-4.85,1.9-.62,3.28-.59,6.85.18.47-3.58-1.67-5.55-5.15-4.75a9.13,9.13,0,0,0-2.84,1.24c-.29.19-.62.39-.74-.09s-1-.93-.27-1.43c2.64-2,7.05-2.34,9.4-.64a5.11,5.11,0,0,1,2.16,4.23c0,2,0,4.09,0,6.13,0,.48,0,1,.41,1.32.82.57.44,1.41.33,2.07-.08.47-.78.39-1.25.32-.75-.11-1.41-.36-1.53-1.25C50.72,134.2,50.68,133.93,50.61,133.39Zm-.36-3.31c-.12-.24.45-1-.31-1.23a7.66,7.66,0,0,0-6,0,2.4,2.4,0,0,0-1.51,2.38A2.55,2.55,0,0,0,44,133.64a5,5,0,0,0,5-.7A2.55,2.55,0,0,0,50.25,130.08Z"/><path class="cls-4" d="M88.31,125.57c0-3,0-6,0-9,0-.79.13-1.13,1-1.12,3.77,0,7.54.07,11.31,0,1.12,0,.93.61,1,1.28s-.09,1.14-1,1.12c-2.92-.07-5.85,0-8.78,0-.77,0-1.06.17-1,1,.06,1.6,0,3.21,0,4.81,0,.75.25,1,1,.94,2.41,0,4.82,0,7.22,0,.9,0,1,.39.93,1.08s0,1.14-.91,1.11c-2.36-.07-4.73,0-7.09-.05-.94,0-1.15.29-1.13,1.17.06,2.08,0,4.17,0,6.25,0,1,.12,1.7-1.36,1.67s-1.15-.81-1.16-1.6Z"/><path class="cls-4" d="M253.42,126.71c0,2.65,0,5.29,0,7.94,0,.75-.15,1-1,1-2.08-.09-1.67.18-1.68-1.62,0-5.05,0-10.1,0-15.15,0-.9-.22-1.16-1.12-1.12-1.68.08-3.37,0-5.05,0-.81,0-.86-.42-.76-1s-.44-1.4.72-1.4h15c1.16,0,.64.87.72,1.39s.06,1-.76,1c-1.72-.06-3.44,0-5.16,0-.78,0-1,.19-1,1C253.45,121.42,253.42,124.07,253.42,126.71Z"/><path class="cls-4" d="M72.7,135.89a11.08,11.08,0,0,1-6.22-1.55c-.69-.41-.7-.77-.25-1.39s.59-.93,1.35-.4a7.35,7.35,0,0,0,5.67,1.4,4.5,4.5,0,0,0,1-.29,2.08,2.08,0,0,0,1.37-2.06,1.8,1.8,0,0,0-1.42-1.72c-1.09-.38-2.22-.66-3.34-1-.61-.18-1.24-.32-1.84-.54A3.64,3.64,0,0,1,67.79,122c2.11-1.94,7.52-1.8,9.54.2.54.53,0,.78-.19,1.09s-.46.87-1.1.4a6.61,6.61,0,0,0-4.17-1.28,4.37,4.37,0,0,0-1.85.47,2,2,0,0,0-1.18,1.93,1.63,1.63,0,0,0,1.28,1.68c1.37.42,2.76.77,4.14,1.18a12.19,12.19,0,0,1,1.7.59,3.76,3.76,0,0,1,.74,6.34A6,6,0,0,1,72.7,135.89Z"/><path class="cls-4" d="M56.15,128c0-1.4,0-2.8,0-4.21,0-.72-.11-1.16-1-1s-1.09-.08-1.06-.94.18-1.14,1-1,1.06-.33,1-1.11c0-1,0-2.08,0-3.12,0-.57.18-.74.76-.77,1.84-.07,1.84-.1,1.84,1.69,0,.76.06,1.53,0,2.28s.28,1.14,1.09,1c.35-.05.72,0,1.08,0,.71,0,1.19,0,1.19,1s-.43,1-1.16,1c-2.19,0-2.19,0-2.19,2.17v6.25c0,2,.91,2.67,2.82,2.08.46-.14,1-.72,1.25.29.16.71.64,1.46-.59,1.74a13,13,0,0,1-2.46.51c-2.18.06-3.42-1-3.56-3.13-.11-1.56,0-3.13,0-4.69Z"/><path class="cls-4" d="M197.08,128.27c0-1.52,0-3.05,0-4.57,0-.66-.17-1-.87-.9s-1.16-.08-1.15-1,.37-1,1.08-.94,1-.24.94-1a21.3,21.3,0,0,1,0-2.65c0-.45-.28-1.14.23-1.3a5.13,5.13,0,0,1,2,0c.34,0,.23.46.23.73,0,1.12,0,2.24,0,3.37,0,.62.2.88.83.83.44,0,.88,0,1.32,0,.67,0,1.21-.1,1.22.93s-.51,1-1.26,1c-2.11,0-2.11,0-2.11,2.17s0,4.09,0,6.14.94,2.82,3,2.17c.43-.14,1-.65,1.13.32.12.66.68,1.35-.46,1.69a6.62,6.62,0,0,1-3.88.4,2.71,2.71,0,0,1-2.25-2.86c0-1.52,0-3,0-4.57Z"/><path class="cls-4" d="M209.94,118.33v.12c0,2.35,0,2.37,2.38,2.39.72,0,1,.17,1,.94s-.14,1-1,1c-2.37,0-2.37,0-2.37,2.38v6c0,2,1,2.7,2.94,2.07.43-.13,1-.66,1.15.31.12.67.67,1.37-.47,1.7a10.36,10.36,0,0,1-2.45.56c-2.4.11-3.67-1.09-3.68-3.5,0-2.81,0-5.61,0-8.42,0-.87-.17-1.3-1.11-1.14s-.88-.34-.9-1,.19-1.06.94-.94,1.12-.25,1.07-1.08.06-1.93,0-2.88.46-1.06,1.21-1,1.53-.2,1.33,1A9.88,9.88,0,0,0,209.94,118.33Z"/><path class="cls-4" d="M319.15,123.84c.69-.76,1.2-1.37,1.76-1.93a4,4,0,0,1,2.2-1.15c.49-.09,1.23-.31,1.43.13a3.7,3.7,0,0,1,.06,1.88c0,.41-.5.29-.79.33a6,6,0,0,0-2.94,1.25,3.79,3.79,0,0,0-1.54,3.21c.09,2.4,0,4.81.05,7.21,0,1-.49,1-1.1.86s-1.53.53-1.52-.82c0-4.36,0-8.73,0-13.09,0-1.1.69-.84,1.28-.86s1.25-.15,1.13.86A18.37,18.37,0,0,0,319.15,123.84Z"/><path class="cls-4" d="M235.08,123.89c.49-.61.79-1,1.12-1.38a4.89,4.89,0,0,1,2.56-1.69c.54-.14,1.25-.37,1.59,0s.18,1.22.11,1.85-.54.36-.87.42a5.56,5.56,0,0,0-3.65,2.09,3.37,3.37,0,0,0-.74,2.22c0,2.44,0,4.88,0,7.32,0,1.2-.73.87-1.34.89s-1.23.19-1.22-.89q.09-6.48,0-13c0-1,.54-.94,1.2-.92s1.35-.16,1.22.91A20.9,20.9,0,0,0,235.08,123.89Z"/><path class="cls-4" d="M122.7,123.92c.45-.6.7-1,1-1.27a5.07,5.07,0,0,1,2.86-1.87c.5-.11,1.18-.33,1.47.09a2.77,2.77,0,0,1,.07,1.87c-.06.43-.49.32-.78.37a5.65,5.65,0,0,0-3.38,1.67,3.79,3.79,0,0,0-1.15,2.8c.06,2.4,0,4.81,0,7.21,0,1.11-.66.85-1.25.85s-1.27.26-1.25-.85c0-4.37,0-8.74,0-13.11,0-.89.47-.88,1-.81s1.4-.39,1.35.77C122.67,122.29,122.7,123,122.7,123.92Z"/><path class="cls-4" d="M329.74,124.07c1.11-1.58,2.09-2.84,3.78-3.25.54-.14,1.25-.36,1.59,0s.15,1.23.13,1.85c0,.46-.43.39-.73.42a5.65,5.65,0,0,0-2.87,1.14,3.84,3.84,0,0,0-1.71,3.36c.08,2.37-.05,4.73.05,7.09,0,1.15-.62.95-1.28,1s-1.28.11-1.26-1c.07-4.28.06-8.57,0-12.86,0-1,.52-.93,1.19-1s1.23.1,1.12,1C329.68,122.48,329.74,123.13,329.74,124.07Z"/><path class="cls-2" d="M11.15,126.5c1,0,1.92,0,2.88,0a3.24,3.24,0,0,1,3.38,3.29,3.33,3.33,0,0,1-3.1,3.6c-2.15.1-4.31,0-6.47,0-.46,0-.66-.16-.65-.62,0-1.88,0-3.76,0-5.64,0-.54.23-.69.73-.68C9,126.52,10.07,126.5,11.15,126.5Z"/><path class="cls-2" d="M11,117.75c.84,0,1.68,0,2.52,0a3,3,0,0,1,3.11,2.84,3.23,3.23,0,0,1-2.45,3.72,43.53,43.53,0,0,1-6.46.15c-.54,0-.52-.38-.52-.75,0-1.75,0-3.51,0-5.27,0-.52.18-.71.7-.7C8.92,117.77,10,117.75,11,117.75Z"/><path class="cls-2" d="M187,127.19c-1.44,0-2.88,0-4.32,0-.6,0-.73-.14-.59-.75a5,5,0,0,1,4.76-4,5.13,5.13,0,0,1,5,3.92c.15.64.07.86-.62.84C189.83,127.17,188.43,127.19,187,127.19Z"/><path class="cls-2" d="M35.3,127.19H26.07c-1,0-.54-.7-.44-1.08a5,5,0,0,1,4.68-3.66,5,5,0,0,1,4.82,3.49A1.91,1.91,0,0,1,35.3,127.19Z"/><path class="cls-2" d="M217.71,127.19a4.88,4.88,0,0,1,4.74-4.73,5,5,0,0,1,5,4c.08.39.29.78-.42.77C223.94,127.18,220.83,127.19,217.71,127.19Z"/><path class="cls-2" d="M114.9,128.2c0,3.56-2.94,6.22-6,5.4a5.41,5.41,0,0,1-3.74-5.54,5.34,5.34,0,0,1,4.13-5.23C112.21,122.3,114.88,124.84,114.9,128.2Z"/><path class="cls-2" d="M348.48,128.25a5.38,5.38,0,0,1-3.23,5.17,4.49,4.49,0,0,1-4.88-1,5.69,5.69,0,0,1-1.37-5.89,4.9,4.9,0,0,1,5.1-3.7A5.21,5.21,0,0,1,348.48,128.25Z"/><path class="cls-2" d="M258.72,128.3c0-3.45,2.79-6.07,5.81-5.45a5.5,5.5,0,0,1,4,6.07c-.43,3-2.58,5-5.31,4.78C260.72,133.53,258.73,131.12,258.72,128.3Z"/><path class="cls-2" d="M311.42,128.24c0,3-2.2,5.5-4.9,5.49a5.24,5.24,0,0,1-4.94-5.47c0-3,2.31-5.54,4.93-5.55S311.42,125.28,311.42,128.24Z"/><path class="cls-2" d="M147.69,130.08a2.53,2.53,0,0,1-1.34,2.95,5.44,5.44,0,0,1-4,.9,2.93,2.93,0,0,1-2.48-2.57,2.66,2.66,0,0,1,1.94-2.72,8.21,8.21,0,0,1,5.53.16C148.2,129.07,147.58,129.85,147.69,130.08Z"/><path class="cls-2" d="M50.25,130.08A2.55,2.55,0,0,1,49,132.94a5,5,0,0,1-5,.7,2.55,2.55,0,0,1-1.63-2.43,2.4,2.4,0,0,1,1.51-2.38,7.66,7.66,0,0,1,6,0C50.7,129.11,50.13,129.84,50.25,130.08Z"/><path class="cls-2" d="M190.77,10a1.52,1.52,0,0,1,.61-1.62c4-3.28,8.1-6.49,13.3-7.68C218.2-2.34,236.93,4,240.63,22.8c1.52,7.7.22,15.15-2.68,22.36-2.72,6.77-6.89,12.64-11.59,18.15-4.55,5.34-9,10.78-13.85,15.83a20.1,20.1,0,0,1-4.1,3.29c.41-1.33.8-2.38,1.05-3.45,2.22-9.55-.72-17.47-8.05-23.67-6.6-5.57-14.2-7.36-22.56-4.5-3.06,1-5.87,2.59-7.75,5.39-.21.31-.51.65-.89.43s0-.58.06-.85c1.54-5.23,3.41-10.34,5.34-15.43a1.86,1.86,0,0,1,1-1.06,139,139,0,0,0,15.5-8.66c4.33-3,8.34-6.26,11-10.94A13.49,13.49,0,0,0,205,14.14a5.14,5.14,0,0,0-4.41-5.89,13,13,0,0,0-8.42,1.12C191.69,9.56,191.27,9.79,190.77,10Z"/><path class="cls-2" d="M146.13,67.9a4.39,4.39,0,0,1-1.95-2c-3.26-5.62-6.32-11.37-7.45-17.85-1.66-9.49-.22-18.35,6.37-25.76s18.46-9.31,26.59-4.49c4.61,2.72,6.34,6.87,5,12.07-.54,2.14-1.44,4.16-2.15,6.24a9.24,9.24,0,0,0-.77,2.64c0,1.66-1,2.27-2.33,2.86A63.3,63.3,0,0,0,156,49.37,25.22,25.22,0,0,0,146.13,67.9Z"/><path class="cls-3" d="M168.22,66.11A16.52,16.52,0,0,0,173.61,76a12,12,0,0,0,10.87,2.77,6.83,6.83,0,0,0,5.27-5.6c.58-4.66-3.14-7.71-7.73-6.34a5.63,5.63,0,0,0-4.31,6.34c.07,1-.29.85-.92.59a7.93,7.93,0,0,1-5-5.31,13,13,0,0,1,3.15-13.25c2.82-2.91,6.56-3.45,10.45-3.23,11.12.66,17.73,9.39,18.13,19.82.47,12.34-7.26,22.6-19.17,25.15a24.11,24.11,0,0,1-11.54-.47c-3.76-1-5.3-3.13-5.65-7.41a97,97,0,0,1,.6-19.79A13.91,13.91,0,0,1,168.22,66.11Z"/><path class="cls-3" d="M170.57,42.69c-.66,2.77-1.29,5.32-1.86,7.89a137.86,137.86,0,0,0-3.46,35.88c.06,1.36.11,2.72.28,4.07.12,1-.27.9-.92.6a10.7,10.7,0,0,1-4.26-3.77,30,30,0,0,1-5.47-16.52c-.25-6.36.66-12.45,4.17-17.94A29.92,29.92,0,0,1,169.8,43,7.54,7.54,0,0,1,170.57,42.69Z"/><path class="cls-2" d="M191.85,97.38a26.46,26.46,0,0,1-4.51,4.14c-5.1,3.75-10.1,7.66-15.7,10.65a18.28,18.28,0,0,1-10.83,2.49,12.05,12.05,0,0,1-10.44-10.25A6.61,6.61,0,0,1,157.89,97a8.85,8.85,0,0,1,5.66,3.12,6.28,6.28,0,0,1-2.37,9.91c-.52.18-1.46.24-1.37.86s.93.91,1.6,1.12c2.67.81,6.3-1.16,7.38-4,.81-2.11.52-4.26.17-6.4a36.3,36.3,0,0,1-.61-4.65c0-.71.22-.93.94-.64C176.62,99.27,184.1,99.22,191.85,97.38Z"/><path class="cls-3" d="M176.62,37.64a84.09,84.09,0,0,1,5.36-12,30.38,30.38,0,0,1,5.5-7.52,10.89,10.89,0,0,1,6.71-3.41,5.68,5.68,0,0,1,.59,0c2.64.12,3.19.74,2.94,3.33a11.39,11.39,0,0,1-3.05,6.79,52.08,52.08,0,0,1-16.24,12.3c-.4.19-.81.34-1.22.5A4.11,4.11,0,0,1,176.62,37.64Z"/></g></g></svg>