<?xml version="1.0" encoding="UTF-8"?>
<svg width="332px" height="79px" viewBox="0 0 332 79" version="1.1" xmlns="http://www.w3.org/2000/svg" xmlns:xlink="http://www.w3.org/1999/xlink">
    <!-- Generator: Sketch 59.1 (86144) - https://sketch.com -->
    <title>logo/postlight</title>
    <desc>Created with Sketch.</desc>
    <g id="logo/postlight" stroke="none" stroke-width="1" fill="none" fill-rule="evenodd">
         <path d="M4540 3783 c-89 -42 -161 -127 -231 -273 -18 -36 -38 -77 -45 -92
        -20 -38 -18 -68 5 -68 11 0 26 7 35 15 8 8 19 15 25 15 5 0 45 27 88 59 151
        114 209 182 233 275 13 47 12 50 -9 68 -28 22 -55 23 -101 1z"/>
        <path d="M3797 3769 c-62 -7 -90 -15 -167 -52 -35 -17 -142 -128 -162 -168
        -54 -111 -68 -162 -75 -291 -8 -143 43 -311 150 -491 33 -54 47 -53 47 3 0 21
        5 42 10 45 6 3 10 13 10 21 0 9 11 40 25 71 50 109 194 228 398 328 31 16 61
        33 65 39 20 26 82 239 82 278 0 106 -97 200 -220 214 -25 3 -56 6 -70 8 -14 1
        -56 -1 -93 -5z"/>
        <path d="M3993 3148 c-125 -96 -201 -246 -218 -429 -8 -76 18 -249 44 -296 5
        -10 20 -40 33 -68 22 -47 99 -135 118 -135 5 0 11 103 13 233 5 265 27 438 82
        662 8 33 15 63 15 68 0 18 -39 2 -87 -35z"/>
        <path d="M4260 2999 c-81 -38 -111 -78 -136 -181 -15 -65 -5 -129 30 -181 16
        -23 63 -57 79 -57 2 0 7 18 10 41 10 73 78 118 160 105 51 -8 85 -38 93 -83
        16 -83 -27 -150 -113 -178 -48 -16 -55 -16 -109 0 -96 28 -161 83 -199 169
        l-23 51 -8 -30 c-5 -16 -8 -125 -9 -241 0 -208 0 -211 25 -247 14 -20 34 -40
        45 -43 11 -3 35 -13 54 -21 42 -19 214 -13 276 10 190 71 298 201 330 397 12
        73 12 96 0 165 -27 158 -92 249 -221 311 -82 39 -217 45 -284 13z"/>
        <path d="M3725 2045 c-31 -32 -35 -41 -35 -90 0 -83 49 -157 134 -200 47 -24
        153 -27 207 -6 47 19 123 55 129 62 3 3 23 16 45 29 22 13 45 28 50 32 6 5 42
        30 80 58 39 27 75 53 80 57 6 5 22 17 36 28 14 11 25 24 25 28 -1 5 -74 9
        -163 10 -114 2 -166 6 -175 15 -6 6 -25 12 -41 12 l-28 0 6 -102 c7 -103 7
        -103 -23 -144 -20 -27 -45 -46 -76 -58 -44 -17 -47 -17 -78 1 -44 25 -43 35 2
        56 44 21 70 62 70 114 0 71 -74 133 -159 133 -44 0 -55 -4 -86 -35z"/>
        <path d="M213.066017,71 L142.355339,141.710678 L107,106.355339 L71.644661,141.710678 L0.933983,71 L71.644661,0.289322 L107,35.644661 L142.355339,0.289322 L213.066017,71 Z M142.355339,71 L107,35.644661 L71.644661,71 L107,106.355339 L142.355339,71 Z" id="Shape" fill="#000000" fill-rule="nonzero"></path>
       
    </g>
</svg>
