<?xml version="1.0" standalone="no"?>
<!DOCTYPE svg PUBLIC "-//W3C//DTD SVG 20010904//EN"
 "http://www.w3.org/TR/2001/REC-SVG-20010904/DTD/svg10.dtd">
<svg version="1.0" xmlns="http://www.w3.org/2000/svg"
 width="900.000000pt" height="450.000000pt" viewBox="0 0 900.000000 450.000000"
 preserveAspectRatio="xMidYMid meet">
<metadata>
Created by potrace 1.10, written by Peter Selinger 2001-2011
</metadata>
<g transform="translate(0.000000,450.000000) scale(0.100000,-0.100000)"
fill="#1f1f1f" stroke="none">
<path d="M4785 4074 c-70 -25 -136 -60 -179 -96 -12 -10 -30 -24 -41 -33 -20
-16 -19 -16 5 -9 14 4 51 9 83 11 64 5 117 -13 149 -51 19 -23 25 -114 8 -144
-5 -9 -17 -35 -27 -57 -35 -81 -206 -228 -353 -306 -25 -13 -47 -27 -50 -30
-3 -3 -27 -16 -55 -30 -84 -40 -125 -68 -125 -87 0 -9 -6 -29 -14 -44 -8 -15
-17 -42 -21 -60 -4 -18 -10 -37 -13 -43 -10 -16 -41 -109 -42 -124 0 -7 14 1
33 19 30 29 59 46 147 81 49 20 212 18 270 -3 130 -47 261 -154 309 -253 13
-28 28 -58 33 -68 21 -42 31 -163 20 -237 -6 -41 -9 -77 -6 -79 5 -6 78 68
128 129 28 35 129 150 175 199 71 78 231 313 231 340 0 6 4 11 9 11 5 0 11 10
14 23 3 12 17 53 31 90 13 38 32 117 41 177 14 98 14 116 0 201 -9 52 -23 110
-31 129 -77 181 -204 288 -406 344 -71 20 -266 20 -323 0z"/>
<!-- B -->
<path d="M566 3915 c-9 -25 -7 -1998 3 -2013 6 -10 113 -12 552 -9 609 5 659
9 789 64 117 49 181 96 242 178 65 85 88 161 88 284 0 220 -97 384 -282 476
-81 40 -95 59 -54 69 35 9 134 102 171 161 54 85 75 167 75 286 0 135 -25 216
-99 323 -48 70 -95 110 -181 153 l-75 38 -611 3 c-562 3 -612 2 -618 -13z
m1033 -403 c113 -69 135 -247 43 -345 -56 -60 -65 -62 -334 -65 -168 -2 -253
0 -267 8 -20 10 -21 19 -21 209 0 109 3 201 7 204 3 4 127 7 274 7 242 0 271
-2 298 -18z m8 -777 c49 -7 93 -41 131 -99 23 -36 26 -51 26 -126 1 -95 -17
-137 -77 -183 -51 -39 -118 -47 -384 -47 -215 0 -249 2 -265 17 -16 15 -18 35
-18 215 0 175 2 200 18 216 15 15 41 17 272 15 140 -1 274 -5 297 -8z"/>
<!-- F -->
<path d="M2366 3915 c-8 -21 -8 -1973 0 -2002 6 -23 7 -23 223 -23 119 0 222
4 228 8 10 6 13 102 15 403 l3 394 327 3 327 2 -53 108 c-30 59 -57 118 -61
132 -4 14 -11 30 -15 35 -4 6 -10 27 -14 47 -4 21 -11 40 -17 44 -6 3 -113 5
-238 5 -125 -1 -235 1 -244 5 -15 5 -17 28 -17 218 0 152 3 215 12 224 9 9 82
12 269 12 l256 0 41 63 c74 115 203 217 297 237 28 5 30 9 30 50 l0 45 -681 3
c-620 2 -682 1 -688 -13z"/>
<!-- B -->
<path d="M5514 3916 c-3 -9 8 -38 25 -66 17 -28 31 -53 31 -56 0 -3 6 -20 14
-37 16 -38 44 -149 48 -192 l3 -30 185 -3 c183 -3 186 -3 224 -30 58 -40 81
-91 81 -182 0 -93 -23 -142 -86 -185 l-44 -30 -229 -5 -229 -5 -30 -55 c-26
-49 -114 -187 -127 -200 -3 -3 -30 -36 -61 -75 -31 -38 -65 -79 -76 -90 -10
-11 -45 -51 -77 -90 -32 -38 -83 -95 -112 -127 l-54 -56 2 -254 3 -253 500 -3
c401 -2 523 1 618 13 65 8 127 19 137 25 10 5 27 10 36 10 43 0 264 132 264
158 0 4 10 18 23 32 74 80 115 261 87 385 -31 141 -60 201 -128 268 -72 71
-90 85 -159 117 -34 16 -63 36 -63 43 0 7 17 21 38 32 130 69 232 260 232 435
0 93 -39 235 -77 281 -7 8 -13 21 -13 27 0 26 -131 141 -197 173 l-68 33 -358
4 c-315 3 -358 2 -363 -12z m551 -1187 c42 -12 90 -55 118 -108 12 -23 17 -56
17 -112 0 -73 -3 -84 -32 -129 -21 -32 -47 -56 -77 -72 -44 -22 -56 -23 -319
-26 -238 -3 -276 -2 -297 12 l-25 16 0 200 c0 177 2 202 18 218 15 15 41 17
287 15 159 -2 286 -7 310 -14z"/>
<!-- T -->
<path d="M6717 3923 c-4 -3 -7 -93 -7 -200 l0 -193 298 0 c218 0 301 -3 310
-12 9 -9 12 -202 12 -809 0 -664 2 -798 14 -808 9 -8 78 -11 227 -9 l214 3 3
804 c1 569 5 808 13 817 9 11 76 14 313 16 l301 3 3 175 c1 96 0 185 -3 198
l-5 22 -844 0 c-463 0 -846 -3 -849 -7z"/>
<g>
<path d="M4540 3783 c-89 -42 -161 -127 -231 -273 -18 -36 -38 -77 -45 -92
-20 -38 -18 -68 5 -68 11 0 26 7 35 15 8 8 19 15 25 15 5 0 45 27 88 59 151
114 209 182 233 275 13 47 12 50 -9 68 -28 22 -55 23 -101 1z"/>
<path d="M3797 3769 c-62 -7 -90 -15 -167 -52 -35 -17 -142 -128 -162 -168
-54 -111 -68 -162 -75 -291 -8 -143 43 -311 150 -491 33 -54 47 -53 47 3 0 21
5 42 10 45 6 3 10 13 10 21 0 9 11 40 25 71 50 109 194 228 398 328 31 16 61
33 65 39 20 26 82 239 82 278 0 106 -97 200 -220 214 -25 3 -56 6 -70 8 -14 1
-56 -1 -93 -5z"/>
<path d="M3993 3148 c-125 -96 -201 -246 -218 -429 -8 -76 18 -249 44 -296 5
-10 20 -40 33 -68 22 -47 99 -135 118 -135 5 0 11 103 13 233 5 265 27 438 82
662 8 33 15 63 15 68 0 18 -39 2 -87 -35z"/>
<path d="M4260 2999 c-81 -38 -111 -78 -136 -181 -15 -65 -5 -129 30 -181 16
-23 63 -57 79 -57 2 0 7 18 10 41 10 73 78 118 160 105 51 -8 85 -38 93 -83
16 -83 -27 -150 -113 -178 -48 -16 -55 -16 -109 0 -96 28 -161 83 -199 169
l-23 51 -8 -30 c-5 -16 -8 -125 -9 -241 0 -208 0 -211 25 -247 14 -20 34 -40
45 -43 11 -3 35 -13 54 -21 42 -19 214 -13 276 10 190 71 298 201 330 397 12
73 12 96 0 165 -27 158 -92 249 -221 311 -82 39 -217 45 -284 13z"/>
<path d="M3725 2045 c-31 -32 -35 -41 -35 -90 0 -83 49 -157 134 -200 47 -24
153 -27 207 -6 47 19 123 55 129 62 3 3 23 16 45 29 22 13 45 28 50 32 6 5 42
30 80 58 39 27 75 53 80 57 6 5 22 17 36 28 14 11 25 24 25 28 -1 5 -74 9
-163 10 -114 2 -166 6 -175 15 -6 6 -25 12 -41 12 l-28 0 6 -102 c7 -103 7
-103 -23 -144 -20 -27 -45 -46 -76 -58 -44 -17 -47 -17 -78 1 -44 25 -43 35 2
56 44 21 70 62 70 114 0 71 -74 133 -159 133 -44 0 -55 -4 -86 -35z"/>
<path d="M4785 4074 c-70 -25 -136 -60 -179 -96 -12 -10 -30 -24 -41 -33 -20
-16 -19 -16 5 -9 14 4 51 9 83 11 64 5 117 -13 149 -51 19 -23 25 -114 8 -144
-5 -9 -17 -35 -27 -57 -35 -81 -206 -228 -353 -306 -25 -13 -47 -27 -50 -30
-3 -3 -27 -16 -55 -30 -84 -40 -125 -68 -125 -87 0 -9 -6 -29 -14 -44 -8 -15
-17 -42 -21 -60 -4 -18 -10 -37 -13 -43 -10 -16 -41 -109 -42 -124 0 -7 14 1
33 19 30 29 59 46 147 81 49 20 212 18 270 -3 130 -47 261 -154 309 -253 13
-28 28 -58 33 -68 21 -42 31 -163 20 -237 -6 -41 -9 -77 -6 -79 5 -6 78 68
128 129 28 35 129 150 175 199 71 78 231 313 231 340 0 6 4 11 9 11 5 0 11 10
14 23 3 12 17 53 31 90 13 38 32 117 41 177 14 98 14 116 0 201 -9 52 -23 110
-31 129 -77 181 -204 288 -406 344 -71 20 -266 20 -323 0z"/>
</g>
<path d="M570 1750 c0 -5 0 -136 0 -290 0 -154 0 -284 0 -290 0 -7 1313 -10
3920 -10 l3920 0 0 300 0 300 -2091 0 -2090 0 -44 -25 c-63 -38 -72 -51 -36
-58 35 -7 71 -63 71 -110 0 -19 -10 -44 -24 -61 l-23 -30 28 -24 c26 -21 29
-31 29 -79 0 -51 -3 -59 -36 -89 l-35 -34 -129 0 c-107 0 -129 3 -134 16 -3 9
-6 100 -6 204 l0 187 -41 7 c-39 6 -139 62 -153 85 -10 15 -3126 16 -3126 1z
m361 -98 c38 -42 42 -119 8 -151 l-22 -20 32 -31 c26 -27 31 -39 31 -78 -1
-50 -15 -74 -61 -104 -21 -13 -53 -17 -142 -19 -63 -1 -120 2 -126 5 -17 11
-15 408 2 425 9 9 44 12 130 9 l119 -3 29 -33z m1734 3 l0 -30 -100 -3 c-64
-2 -102 -7 -107 -15 -4 -7 -8 -33 -8 -59 l0 -48 90 0 c75 0 92 -3 97 -16 13
-36 -10 -49 -90 -50 -85 -2 -98 -7 -96 -37 1 -12 1 -50 1 -85 l-2 -63 -32 3
-33 3 -3 204 c-2 144 1 208 9 218 9 11 40 13 143 11 l131 -3 0 -30z m3295 20
c6 -8 9 -23 5 -35 -5 -17 -15 -20 -66 -20 -32 0 -60 -1 -61 -2 -1 -2 -4 -84
-7 -183 l-6 -180 -35 0 -35 0 -5 180 -5 180 -59 5 c-66 6 -90 26 -67 54 19 23
322 24 341 1z m-4193 -1 c17 -5 23 -15 25 -48 3 -36 6 -41 31 -44 22 -3 27 -8
27 -32 0 -24 -5 -29 -27 -32 l-28 -3 0 -100 0 -100 31 3 c43 4 60 -18 36 -48
-26 -32 -93 -33 -124 -2 -21 20 -23 34 -26 132 -3 97 -6 110 -23 115 -26 8
-25 51 1 65 14 7 20 21 20 43 0 18 5 38 12 45 14 14 15 14 45 6z m2927 0 c11
-4 16 -19 16 -49 0 -42 1 -44 33 -47 24 -2 33 -8 35 -25 3 -22 -25 -46 -50
-41 -10 2 -14 -21 -16 -94 l-3 -97 43 -3 c35 -2 44 -7 46 -24 4 -30 -22 -47
-72 -47 -30 0 -49 6 -64 21 -20 20 -22 33 -22 130 0 96 -2 108 -20 120 -11 7
-20 19 -20 27 0 8 9 23 20 32 13 12 20 30 20 54 0 42 18 57 54 43z m226 -9 c7
-8 10 -25 6 -39 -7 -27 7 -42 44 -48 19 -2 25 -9 25 -28 0 -20 -7 -27 -36 -34
l-35 -9 4 -91 c2 -50 6 -93 8 -95 2 -2 18 -4 36 -5 25 -1 34 -6 36 -21 4 -33
-12 -45 -61 -47 -37 -2 -51 3 -72 22 -24 22 -25 29 -25 132 0 87 -3 110 -15
114 -8 4 -15 18 -15 34 0 16 7 30 15 34 10 3 15 19 15 45 0 29 5 41 18 44 31
8 39 7 52 -8z m-3672 -96 c2 -5 10 -9 17 -9 19 0 73 -68 80 -102 4 -15 4 -37
0 -48 -6 -19 -15 -20 -121 -20 -98 0 -116 -2 -121 -17 -4 -10 3 -24 21 -40 35
-30 94 -31 126 -3 30 26 64 22 68 -7 2 -17 -7 -28 -39 -49 -59 -37 -108 -42
-158 -16 -78 41 -108 97 -97 180 10 77 46 115 136 146 21 7 84 -4 88 -15z
m359 -11 c40 -24 65 -93 63 -175 -1 -32 1 -72 5 -89 5 -22 2 -34 -10 -44 -13
-11 -20 -10 -45 8 l-29 22 -40 -21 c-58 -30 -111 -20 -151 29 -16 20 -30 46
-30 57 0 27 36 84 58 91 9 3 27 10 38 16 12 5 43 8 70 7 44 -4 49 -2 46 16 -2
11 -9 26 -14 33 -14 16 -71 15 -114 -3 -42 -17 -54 -13 -54 20 0 22 10 29 85
56 29 10 85 0 122 -23z m538 1 l36 -22 -22 -23 c-20 -21 -23 -22 -44 -8 -14 9
-40 14 -67 12 -36 -2 -44 -7 -46 -25 -4 -24 30 -43 98 -57 48 -9 80 -39 87
-79 4 -30 0 -40 -30 -73 -34 -37 -38 -39 -99 -39 -106 0 -174 52 -115 89 13 8
20 8 26 -3 14 -22 123 -28 140 -7 7 8 10 20 6 26 -8 13 -61 35 -106 44 -53 9
-79 39 -79 87 0 33 6 47 30 69 17 16 41 31 53 33 38 8 94 -2 132 -24z m773 3
c18 -9 44 -34 58 -54 24 -33 26 -45 22 -107 -3 -57 -8 -75 -28 -97 -28 -30
-94 -63 -127 -64 -44 0 -105 33 -134 73 -25 34 -29 50 -29 102 0 49 5 68 25
94 55 76 130 94 213 53z m720 -9 c43 -33 52 -58 52 -154 0 -44 5 -88 12 -98 6
-10 9 -25 5 -33 -8 -22 -45 -29 -61 -12 -18 18 -37 18 -72 -1 -39 -20 -72 -19
-114 4 -86 45 -77 147 17 186 41 17 99 20 108 5 12 -20 25 -10 25 20 0 20 -7
33 -21 41 -26 13 -112 6 -117 -10 -9 -28 -42 -3 -42 33 0 12 50 41 85 50 36 8
89 -5 123 -31z m881 9 c44 -29 62 -52 76 -100 21 -68 14 -72 -126 -72 -129 0
-135 -3 -99 -50 16 -21 27 -25 74 -25 43 0 58 4 69 19 10 14 21 17 40 12 37
-9 34 -29 -9 -64 -70 -58 -153 -53 -219 13 -84 83 -68 202 35 267 51 31 110
31 159 0z m744 -2 c48 -29 79 -81 75 -127 l-3 -38 -119 -5 c-77 -3 -121 -9
-123 -17 -2 -6 8 -23 22 -37 33 -33 82 -34 135 -3 36 20 41 21 55 6 14 -14 14
-18 -5 -41 -28 -36 -99 -62 -146 -53 -72 13 -118 56 -133 125 -22 99 24 178
124 212 29 10 81 0 118 -22z m859 -7 c43 -26 78 -90 78 -140 0 -45 -32 -106
-73 -137 -78 -60 -181 -36 -240 56 -24 38 -23 124 2 164 55 90 146 112 233 57z
m566 -9 l33 -34 -3 -128 -3 -127 -32 -3 c-32 -3 -33 -2 -34 35 -2 126 -8 206
-16 213 -4 4 -18 11 -31 15 -18 5 -30 -1 -57 -29 -34 -36 -34 -39 -37 -134
l-3 -97 -30 0 -30 0 -6 125 c-3 69 -7 126 -8 128 0 1 -18 2 -39 2 -61 0 -76
-25 -80 -129 -4 -122 -7 -131 -41 -131 -17 0 -31 6 -35 16 -12 31 -7 289 6
302 18 18 49 14 55 -7 4 -17 9 -18 29 -9 13 6 24 15 24 20 0 4 23 8 52 8 42 0
57 -5 79 -26 l27 -25 27 25 c49 45 103 42 153 -10z m327 7 c51 -34 68 -71 68
-143 0 -97 -66 -164 -162 -162 -151 3 -216 180 -106 289 61 61 124 66 200 16z
m755 12 c79 -39 115 -155 70 -228 -37 -60 -85 -89 -144 -89 -99 0 -161 65
-161 169 0 92 35 135 135 169 20 6 64 -2 100 -21z m-4660 -3 l11 -21 30 21
c40 29 73 23 77 -13 3 -23 -1 -28 -25 -33 -15 -3 -41 -16 -57 -29 -28 -22 -29
-26 -27 -103 2 -110 -4 -132 -39 -132 -36 0 -40 15 -40 165 0 66 3 130 6 143
8 29 49 30 64 2z m2334 5 c3 -8 12 -15 19 -15 8 0 20 7 27 15 18 21 57 19 70
-4 15 -28 15 -28 -44 -57 -34 -16 -56 -35 -60 -48 -3 -11 -6 -63 -6 -114 l0
-93 -32 3 -33 3 -3 140 c-3 167 0 185 32 185 13 0 26 -7 30 -15z m1749 -6 l6
-21 30 22 c41 28 75 24 79 -12 2 -20 -2 -28 -20 -33 -13 -4 -37 -18 -55 -31
-32 -24 -32 -25 -35 -127 l-3 -102 -32 -3 c-29 -3 -31 -1 -36 35 -9 62 -7 242
3 269 12 31 55 34 63 3z m215 -6 l3 -23 34 26 c42 32 80 30 80 -5 0 -17 -10
-30 -35 -44 -62 -33 -65 -39 -70 -150 -5 -99 -6 -102 -29 -105 -43 -6 -51 20
-51 154 0 141 9 177 43 172 14 -2 23 -11 25 -25z m522 -25 c13 -29 28 -66 35
-83 31 -77 40 -95 47 -95 5 0 8 5 8 11 0 6 7 26 16 45 15 32 15 35 -11 89 -30
63 -27 85 9 85 19 0 26 -7 31 -30 4 -17 13 -30 21 -30 8 0 20 14 25 30 8 22
17 30 34 30 13 0 26 -4 29 -9 6 -8 -11 -59 -36 -107 -8 -17 -6 -34 10 -75 l20
-54 16 39 c9 21 16 40 16 43 0 6 38 92 58 131 17 34 58 45 68 18 5 -12 -23
-83 -62 -159 -8 -16 -14 -33 -14 -38 0 -6 -11 -35 -25 -65 -20 -44 -29 -54
-50 -54 -25 0 -41 19 -61 75 -6 17 -17 30 -24 30 -7 0 -18 -13 -24 -30 -20
-56 -36 -75 -61 -75 -24 0 -43 31 -86 135 -29 72 -51 122 -59 137 -20 35 -12
58 18 58 25 0 32 -7 52 -52z"/>
<path d="M714 1594 c-3 -17 -4 -44 -2 -60 3 -28 4 -29 68 -32 55 -2 69 1 88
18 27 25 28 50 4 79 -14 18 -29 22 -85 24 l-67 2 -6 -31z"/>
<path d="M717 1421 c-2 -9 -3 -36 -3 -61 l1 -44 80 2 c70 1 82 4 97 24 25 32
22 53 -8 77 -22 17 -39 21 -95 19 -53 -1 -70 -5 -72 -17z"/>
<path d="M1124 1497 c-18 -16 -25 -30 -21 -40 5 -14 21 -17 87 -17 72 0 80 2
80 19 0 28 -47 61 -86 61 -20 0 -43 -9 -60 -23z"/>
<path d="M1459 1379 c-18 -18 -19 -23 -6 -42 28 -43 121 -30 133 19 8 33 -7
44 -63 44 -30 0 -49 -6 -64 -21z"/>
<path d="M2811 1513 c-38 -15 -56 -48 -56 -100 0 -68 26 -98 86 -98 112 0 124
177 14 198 -16 3 -36 3 -44 0z"/>
<path d="M3498 1393 c-23 -6 -34 -49 -18 -68 15 -18 69 -20 105 -3 30 13 45
56 24 69 -14 9 -80 10 -111 2z"/>
<path d="M4400 1513 c-23 -9 -50 -40 -50 -58 0 -12 15 -15 85 -15 75 0 85 2
85 18 0 32 -24 53 -65 57 -22 3 -47 2 -55 -2z"/>
<path d="M5115 1494 c-40 -40 -29 -49 65 -49 94 0 105 9 65 49 -19 19 -36 26
-65 26 -29 0 -46 -7 -65 -26z"/>
<path d="M5974 1484 c-25 -26 -34 -44 -34 -71 0 -75 78 -126 135 -89 39 25 58
81 43 123 -15 42 -34 59 -77 67 -30 5 -38 2 -67 -30z"/>
<path d="M6895 1513 c-56 -11 -80 -127 -36 -175 30 -32 91 -31 125 1 21 20 26
34 26 72 0 72 -49 115 -115 102z"/>
<path d="M7675 1513 c-43 -11 -65 -43 -65 -98 0 -71 25 -100 85 -100 32 0 48
5 60 20 45 57 42 119 -6 159 -31 26 -37 28 -74 19z"/>
<path d="M3974 1596 c-3 -13 -4 -38 -2 -57 l3 -34 64 -3 c54 -3 67 0 87 19 28
26 30 46 8 77 -13 19 -24 22 -84 22 -65 0 -70 -2 -76 -24z"/>
<path d="M3984 1429 c-5 -8 -10 -35 -11 -61 -2 -54 -8 -50 97 -48 71 1 90 14
90 59 0 47 -14 55 -93 59 -55 3 -77 1 -83 -9z"/>
<path d="M569 1029 c-5 -3 -8 -136 -7 -320 l3 -314 23 -3 c25 -4 23 -15 22
158 0 63 3 120 8 127 5 9 52 13 152 15 137 3 145 4 145 23 0 19 -8 20 -145 23
-100 2 -147 6 -152 15 -9 14 -11 188 -2 211 5 14 31 16 180 16 149 0 175 2
181 16 3 8 1 20 -4 25 -10 10 -388 18 -404 8z"/>
<path d="M1483 1021 c-118 -44 -180 -117 -209 -246 -43 -193 103 -388 291
-388 187 0 337 198 292 388 -19 81 -48 134 -96 178 -87 78 -185 103 -278 68z
m187 -59 c71 -44 112 -101 135 -191 14 -56 14 -66 0 -122 -24 -91 -64 -146
-138 -193 -20 -12 -49 -17 -102 -17 -61 0 -80 4 -112 24 -177 113 -178 380 -2
492 56 36 165 39 219 7z"/>
<path d="M2220 1025 c-16 -19 -9 -398 7 -435 7 -14 14 -37 17 -52 9 -39 84
-113 136 -135 56 -22 160 -22 213 1 56 25 110 84 135 150 20 53 22 75 22 267
l0 209 -24 0 -24 0 -4 -217 c-4 -186 -7 -223 -23 -253 -49 -95 -90 -121 -191
-121 -65 0 -80 3 -116 28 -26 17 -52 47 -67 78 -25 48 -26 56 -29 264 -3 207
-6 230 -33 231 -4 0 -12 -7 -19 -15z"/>
<path d="M3151 1031 c-8 -5 -11 -89 -9 -322 l3 -314 25 0 25 0 3 253 c2 215 5
252 17 252 8 0 15 -3 15 -7 0 -5 23 -35 50 -68 28 -33 54 -64 58 -70 13 -17
116 -149 133 -170 10 -11 34 -41 55 -67 104 -126 107 -129 128 -126 21 3 21 7
24 312 2 324 0 346 -39 325 -18 -9 -19 -25 -19 -264 0 -275 -3 -288 -49 -220
-13 19 -34 46 -47 60 -13 14 -50 60 -84 103 -74 96 -185 237 -224 285 -32 40
-47 49 -65 38z"/>
<path d="M7133 1020 c-68 -24 -145 -97 -180 -169 -24 -48 -28 -69 -28 -141 0
-72 4 -93 28 -141 31 -64 106 -140 163 -165 83 -36 201 -18 281 43 32 25 93
105 93 122 0 5 7 22 15 37 9 18 15 57 15 104 0 47 -6 86 -15 104 -8 15 -15 32
-15 37 0 18 -62 98 -95 124 -44 33 -132 65 -177 65 -18 -1 -57 -9 -85 -20z
m198 -61 c41 -20 87 -74 114 -133 26 -55 26 -181 -1 -233 -57 -113 -116 -153
-227 -153 -62 0 -74 3 -121 35 -40 26 -61 50 -85 94 -27 52 -31 68 -31 141 0
73 4 89 31 141 65 121 202 167 320 108z"/>
<path d="M4080 1023 c-1 -7 0 -568 0 -615 0 -16 13 -18 131 -18 160 0 219 15
283 71 51 45 71 80 92 157 18 69 18 118 -3 200 -14 58 -24 74 -72 123 -77 76
-120 89 -295 89 -75 0 -136 -3 -136 -7z m329 -63 c57 -29 105 -90 124 -160 21
-75 21 -111 -1 -180 -23 -75 -54 -115 -115 -150 -50 -28 -58 -30 -169 -30
l-118 0 0 270 0 270 120 0 c100 0 127 -3 159 -20z"/>
<path d="M5129 1003 c-6 -15 -18 -43 -26 -60 -25 -58 -43 -102 -57 -135 -8
-18 -19 -44 -24 -58 -6 -14 -27 -65 -48 -115 -41 -103 -61 -149 -81 -187 -20
-39 -17 -58 10 -58 18 0 27 10 41 43 47 107 53 123 59 140 6 16 21 17 158 15
123 -2 153 -6 159 -18 4 -8 14 -31 22 -50 52 -121 57 -130 83 -130 33 0 35 -9
-22 120 -32 73 -42 98 -78 185 -20 50 -43 106 -51 125 -9 19 -20 46 -26 60
-55 134 -62 145 -86 148 -16 3 -25 -4 -33 -25z m51 -64 c0 -6 6 -25 14 -42 7
-18 23 -57 35 -87 12 -30 26 -64 30 -75 34 -81 33 -79 15 -92 -12 -9 -52 -13
-120 -13 -122 0 -137 9 -110 65 9 19 23 49 30 67 8 18 19 44 24 58 6 14 21 49
33 78 12 28 28 52 35 52 8 0 14 -5 14 -11z"/>
<path d="M5662 1008 c3 -22 8 -23 113 -28 l110 -5 3 -293 2 -293 23 3 22 3 5
290 5 290 110 5 c105 5 110 6 113 28 l3 22 -256 0 -256 0 3 -22z"/>
<path d="M6510 710 l0 -320 25 0 25 0 0 320 0 320 -25 0 -25 0 0 -320z"/>
<path d="M7880 715 c0 -295 1 -315 18 -324 39 -21 42 1 42 261 0 267 3 280 47
215 44 -63 368 -461 384 -470 9 -6 24 -7 33 -4 15 6 16 36 14 319 l-3 313 -25
0 -25 0 -5 -258 c-3 -141 -9 -257 -13 -258 -5 0 -27 24 -50 53 -23 29 -44 55
-47 58 -3 3 -27 33 -53 67 -26 34 -53 68 -60 75 -7 7 -35 42 -62 78 -27 36
-56 73 -66 82 -9 9 -32 37 -50 62 -22 32 -39 46 -56 46 l-23 0 0 -315z"/>
</g>
</svg>

